SplineFontDB: 3.2
FontName: parvolak
FullName: Parvolak
FamilyName: Parvolak
Weight: Book

StartChar: .notdef
Encoding: 0 -1 0
AltUni2: 000000.ffffffff.0
Width: 1020
VWidth: 1020
Flags: W
LayerCount: 2
Fore
SplineSet
0 0 m 1,0,-1
 999 0 l 1,1,-1
 999 1024 l 1,2,-1
 0 1024 l 1,3,-1
 0 0 l 1,0,-1
EndSplineSet
EndChar

StartChar: glyph
Encoding: 1040 1040 3
Width: 658
VWidth: 1000
GlyphClass: 2
Flags: W
LayerCount: 2
Fore
SplineSet
497 2 m 132,-1,1
 480 9 480 9 475 18 c 4,2,3
 466 30 466 30 471 77.5 c 132,-1,4
 476 125 476 125 489 175 c 4,5,6
 505 236 505 236 506 248 c 4,7,8
 502 249 502 249 428 248 c 6,9,-1
 358 248 l 5,10,-1
 315 181 l 6,11,12
 249 82 249 82 200 42 c 132,-1,13
 151 2 151 2 97 2 c 4,14,15
 33 2 33 2 10 61 c 4,16,17
 -2 88 -2 88 6 101 c 4,18,19
 17 113 17 113 24 110.5 c 132,-1,20
 31 108 31 108 40 86 c 4,21,22
 67 20 67 20 126.5 42 c 132,-1,23
 186 64 186 64 265 173 c 4,24,25
 317 243 317 243 316 248 c 4,26,27
 316 249 316 249 265 248 c 4,28,29
 240 248 240 248 231 252 c 132,-1,30
 222 256 222 256 224 265 c 4,31,32
 225 274 225 274 236.5 277 c 132,-1,33
 248 280 248 280 281 281 c 4,34,35
 337 285 l 4,36,37
 341 286 341 286 349.5 298.5 c 132,-1,38
 358 311 358 311 376.5 340 c 132,-1,39
 395 369 395 369 410 389 c 4,40,41
 465 470 465 470 470.5 475 c 132,-1,42
 476 480 476 480 525 553.5 c 132,-1,43
 574 627 574 627 577.5 630 c 132,-1,44
 581 633 581 633 592 649 c 4,45,46
 596 660 596 660 608.5 663.5 c 132,-1,47
 621 667 621 667 631 664 c 132,-1,48
 641 661 641 661 641 651 c 4,49,50
 641 638 641 638 606 492.5 c 132,-1,51
 571 347 571 347 564 314 c 6,52,-1
 558 282 l 5,53,-1
 584 282 l 6,54,55
 634 282 634 282 633 261 c 4,56,57
 633 251 633 251 624.5 248.5 c 132,-1,58
 616 246 616 246 581 248 c 4,59,60
 568 249 568 249 551 248 c 5,61,62
 535 196 535 196 516 129 c 4,63,64
 503 74 503 74 504 53 c 132,-1,65
 505 32 505 32 524 32 c 4,66,67
 534 32 534 32 568.5 70 c 132,-1,68
 603 108 603 108 638 153 c 4,69,70
 650 170 650 170 661 171 c 132,-1,71
 672 172 672 172 672 152 c 132,-1,72
 672 132 672 132 617 67 c 132,-1,73
 562 2 562 2 546 2 c 4,74,75
 535 2 535 2 524.5 -1.5 c 132,-1,0
 514 -5 514 -5 497 2 c 132,-1,1
524 311 m 6,76,77
 544 392 544 392 565 478.5 c 132,-1,78
 586 565 586 565 585 568 c 4,79,80
 583 573 583 573 517 476 c 132,-1,81
 451 379 451 379 444 371 c 132,-1,82
 437 363 437 363 422.5 341.5 c 132,-1,83
 408 320 408 320 396 302 c 6,84,-1
 384 282 l 5,85,-1
 450 282 l 5,86,-1
 516 282 l 5,87,-1
 524 311 l 6,76,77
EndSplineSet
EndChar

StartChar: glyph
Encoding: 1072 1072 4
Width: 365
VWidth: 1028
GlyphClass: 2
Flags: W
LayerCount: 2
Fore
SplineSet
239 -2 m 132,-1,1
 217 -5 217 -5 197.5 7.5 c 132,-1,2
 178 20 178 20 178 34 c 132,-1,3
 178 48 178 48 177 48 c 4,4,5
 173 48 173 48 146 26 c 132,-1,6
 119 4 119 4 84.5 1 c 132,-1,7
 50 -2 50 -2 20 21 c 4,8,9
 3 33 3 33 -0.5 46 c 132,-1,10
 -4 59 -4 59 -4 105 c 4,11,12
 -2 210 -2 210 70 281 c 4,13,14
 97 308 97 308 145 313.5 c 132,-1,15
 193 319 193 319 217 296 c 4,16,17
 223 291 223 291 227.5 291.5 c 132,-1,18
 232 292 232 292 245 305.5 c 132,-1,19
 258 319 258 319 269.5 308.5 c 132,-1,20
 281 298 281 298 256.5 206.5 c 132,-1,21
 232 115 232 115 222.5 90 c 132,-1,22
 213 65 213 65 215 49 c 132,-1,23
 217 33 217 33 231 33 c 4,24,25
 253 33 253 33 331 136 c 4,26,27
 356 169 356 169 374 167 c 4,28,29
 383 166 383 166 383 156 c 132,-1,30
 383 146 383 146 341 88.5 c 132,-1,31
 299 31 299 31 280 16 c 132,-1,0
 261 1 261 1 239 -2 c 132,-1,1
134 63 m 4,32,33
 162 90 162 90 184 129.5 c 132,-1,34
 206 169 206 169 211 198 c 132,-1,35
 216 227 216 227 212 238.5 c 132,-1,36
 208 250 208 250 196.5 263.5 c 132,-1,37
 185 277 185 277 175.5 279.5 c 132,-1,38
 166 282 166 282 148 280 c 4,39,40
 96 271 96 271 62.5 211 c 132,-1,41
 29 151 29 151 36 76 c 4,42,43
 37 60 37 60 51 46.5 c 132,-1,44
 65 33 65 33 83 34 c 132,-1,45
 101 35 101 35 134 63 c 4,32,33
EndSplineSet
EndChar

StartChar: glyph
Encoding: 1041 1041 5
Width: 557
VWidth: 1000
GlyphClass: 2
Flags: W
LayerCount: 2
Fore
SplineSet
69 5 m 0,0,1
 36 11 36 11 17 34 c 0,2,3
 1 54 1 54 -0.5 65 c 128,-1,4
 -2 76 -2 76 10 87 c 0,5,6
 21 97 21 97 32.5 84 c 128,-1,7
 44 71 44 71 44 65.5 c 128,-1,8
 44 60 44 60 69 45 c 0,9,10
 111 23 111 23 153.5 48.5 c 128,-1,11
 196 74 196 74 216 130 c 0,12,13
 228 169 228 169 255 288 c 0,14,15
 291 441 291 441 301 480 c 128,-1,16
 311 519 311 519 326 553 c 0,17,18
 344 601 344 601 358 601 c 0,19,20
 389 601 389 601 370 564 c 0,21,22
 360 546 360 546 342 482 c 128,-1,23
 324 418 324 418 316 384 c 2,24,-1
 311 354 l 1,25,-1
 337 373 l 2,26,27
 364 391 364 391 415.5 393.5 c 128,-1,28
 467 396 467 396 493 379 c 0,29,30
 547 343 547 343 559 263 c 128,-1,31
 571 183 571 183 531 102 c 0,32,33
 472 -15 472 -15 358 -1 c 0,34,35
 331 3 331 3 299 21.5 c 128,-1,36
 267 40 267 40 261 54.5 c 128,-1,37
 255 69 255 69 266 76 c 128,-1,38
 277 83 277 83 292 72 c 0,39,40
 348 35 348 35 383 33.5 c 128,-1,41
 418 32 418 32 451 64 c 0,42,43
 491 100 491 100 511 156 c 128,-1,44
 531 212 531 212 522.5 265.5 c 128,-1,45
 514 319 514 319 478 345 c 0,46,47
 458 360 458 360 424.5 359 c 128,-1,48
 391 358 391 358 358 342 c 0,49,50
 316 322 316 322 302.5 297.5 c 128,-1,51
 289 273 289 273 272 196 c 0,52,53
 245 76 245 76 196 32 c 128,-1,54
 147 -12 147 -12 69 5 c 0,0,1
148 408 m 0,55,56
 135 424 135 424 127.5 455.5 c 128,-1,57
 120 487 120 487 121 519 c 0,58,59
 125 571 125 571 166.5 612.5 c 128,-1,60
 208 654 208 654 265 662 c 0,61,62
 303 667 303 667 444 663.5 c 128,-1,63
 585 660 585 660 588.5 651.5 c 128,-1,64
 592 643 592 643 590 633 c 0,65,66
 586 624 586 624 559 623.5 c 128,-1,67
 532 623 532 623 435 627 c 0,68,69
 303 631 303 631 259 623.5 c 128,-1,70
 215 616 215 616 191 584 c 0,71,72
 154 529 154 529 167 477 c 0,73,74
 187 402 187 402 168 396 c 0,75,76
 160 396 160 396 148 408 c 0,55,56
EndSplineSet
EndChar

StartChar: glyph
Encoding: 1073 1073 6
Width: 255
VWidth: 999
GlyphClass: 2
Flags: W
LayerCount: 2
Fore
SplineSet
43 -10 m 256,0,1
 23 5 23 5 13 33 c 0,2,3
 -5 88 -5 88 19 172 c 128,-1,4
 43 256 43 256 80 275 c 0,5,6
 111 288 111 288 146 284.5 c 128,-1,7
 181 281 181 281 194 262 c 0,8,9
 195 260 195 260 199 270 c 0,10,11
 203 288 203 288 204 326 c 0,12,13
 214 439 214 439 233.5 494 c 128,-1,14
 253 549 253 549 304 601 c 0,15,16
 347 645 347 645 368 645 c 0,17,18
 404 645 404 645 380 619 c 0,19,20
 371 609 371 609 354 598 c 0,21,22
 298 559 298 559 273 503.5 c 128,-1,23
 248 448 248 448 240 341 c 0,24,25
 228 163 228 163 209 92 c 128,-1,26
 190 21 190 21 148 -10 c 0,27,28
 128 -25 128 -25 95.5 -25 c 128,-1,29
 63 -25 63 -25 43 -10 c 256,0,1
145 34 m 0,30,31
 172 67 172 67 181 121 c 128,-1,32
 190 175 190 175 177 215.5 c 128,-1,33
 164 256 164 256 136 256 c 0,34,35
 109 256 109 256 85 229 c 128,-1,36
 61 202 61 202 50.5 166 c 128,-1,37
 40 130 40 130 41.5 89.5 c 128,-1,38
 43 49 43 49 61 23 c 0,39,40
 72 11 72 11 79.5 8 c 128,-1,41
 87 5 87 5 104 9 c 0,42,43
 128 14 128 14 145 34 c 0,30,31
EndSplineSet
EndChar

StartChar: glyph
Encoding: 1042 1042 7
Width: 555
VWidth: 1000
GlyphClass: 2
Flags: W
LayerCount: 2
Fore
SplineSet
342 -1 m 0,0,1
 316 4 316 4 293.5 16.5 c 128,-1,2
 271 29 271 29 263 44 c 128,-1,3
 255 59 255 59 264 69 c 0,4,5
 275 79 275 79 287 69 c 0,6,7
 309 54 309 54 339 41.5 c 128,-1,8
 369 29 369 29 388 29 c 0,9,10
 415 29 415 29 441.5 44 c 128,-1,11
 468 59 468 59 484 83 c 0,12,13
 512 127 512 127 521 193 c 128,-1,14
 530 259 530 259 508 282 c 0,15,16
 497 293 497 293 497 299 c 0,17,18
 497 310 497 310 458 325.5 c 128,-1,19
 419 341 419 341 383 345 c 0,20,21
 350 349 350 349 342.5 351.5 c 128,-1,22
 335 354 335 354 335 365 c 0,23,24
 336 375 336 375 346.5 379.5 c 128,-1,25
 357 384 357 384 384 390 c 0,26,27
 428 401 428 401 466.5 422.5 c 128,-1,28
 505 444 505 444 520 468 c 0,29,30
 538 495 538 495 538 529.5 c 128,-1,31
 538 564 538 564 519 586 c 0,32,33
 480 626 480 626 392 633 c 128,-1,34
 304 640 304 640 235 608 c 0,35,36
 209 596 209 596 201 587 c 128,-1,37
 193 578 193 578 180 556 c 0,38,39
 149 495 149 495 175 445 c 0,40,41
 187 423 187 423 178 412 c 0,42,43
 155 385 155 385 139 424 c 0,44,45
 128 451 128 451 128 497 c 0,46,47
 128 540 128 540 140 566 c 128,-1,48
 152 592 152 592 183 619 c 0,49,50
 214 646 214 646 251.5 656.5 c 128,-1,51
 289 667 289 667 365 667 c 0,52,53
 426 663 426 663 450 659 c 0,54,55
 506 639 l 2,56,57
 558 619 558 619 572 569 c 128,-1,58
 586 519 586 519 563 466 c 0,59,60
 551 439 551 439 536.5 422 c 128,-1,61
 522 405 522 405 491 384 c 0,62,63
 466 369 466 369 464 365 c 0,64,65
 464 361 464 361 476 359 c 0,66,67
 494 355 494 355 515.5 334 c 128,-1,68
 537 313 537 313 548 289 c 0,69,70
 574 228 574 228 547.5 135.5 c 128,-1,71
 521 43 521 43 468 13 c 0,72,73
 446 1 446 1 410.5 -3 c 128,-1,74
 375 -7 375 -7 342 -1 c 0,0,1
43 12 m 0,75,76
 23 22 23 22 7 44.5 c 128,-1,77
 -9 67 -9 67 -4 80 c 256,78,79
 0 92 0 92 11.5 89 c 128,-1,80
 23 86 23 86 43 64 c 0,81,82
 69 37 69 37 91 32.5 c 128,-1,83
 113 28 113 28 146.5 44.5 c 128,-1,84
 180 61 180 61 198.5 95.5 c 128,-1,85
 217 130 217 130 233 208 c 0,86,87
 287 440 287 440 313.5 521 c 128,-1,88
 340 602 340 602 358 602 c 0,89,90
 374 602 374 602 375 591.5 c 128,-1,91
 376 581 376 581 365 552 c 0,92,93
 345 507 345 507 261 156 c 0,94,95
 249 106 249 106 227 67.5 c 128,-1,96
 205 29 205 29 178 13 c 0,97,98
 155 0 155 0 112.5 -0.5 c 128,-1,99
 70 -1 70 -1 43 12 c 0,75,76
EndSplineSet
EndChar

StartChar: glyph
Encoding: 1074 1074 8
Width: 309
VWidth: 999
GlyphClass: 2
Flags: W
LayerCount: 2
Fore
SplineSet
121 16 m 0,0,1
 94 36 94 36 85 90 c 0,2,3
 75 148 75 148 94 200 c 0,4,5
 98 211 98 211 99.5 218.5 c 128,-1,6
 101 226 101 226 103 231 c 0,7,-1
 104 237 l 1,8,9
 94 237 94 237 58.5 188 c 128,-1,10
 23 139 23 139 10 139 c 0,11,12
 -21 139 -21 139 1 171 c 0,13,14
 6 178 6 178 12 185 c 0,15,16
 87 272 87 272 109 312.5 c 0,17,18
 123 338 123 338 152 458 c 0,19,20
 186 600 186 600 195 617 c 0,21,22
 220 665 220 665 270 674.5 c 0,23,24
 319 684 319 684 340 645 c 0,25,26
 362 602 362 602 334.5 542.5 c 0,27,28
 309 486 309 486 211 373 c 0,29,30
 147 299 147 299 156 294 c 0,31,32
 158 293 158 293 174 305 c 0,33,34
 210 332 210 332 258 313 c 0,35,36
 291 300 291 300 300.5 245.5 c 128,-1,37
 310 191 310 191 295.5 128 c 0,38,39
 282 68 282 68 246 32 c 0,40,41
 225 11 225 11 216.5 7.5 c 0,42,43
 205 3 205 3 179 3 c 0,44,45
 139 4 139 4 121 16 c 0,0,1
204 42 m 0,46,47
 232 54 232 54 256.5 125 c 0,48,49
 280 194 280 194 267 239 c 0,50,51
 256 276 256 276 228 281.5 c 0,52,53
 199 287 199 287 168 259 c 0,54,55
 145 237 145 237 128.5 183.5 c 128,-1,56
 112 130 112 130 118 98 c 0,57,58
 122 76 122 76 140 54.5 c 0,59,60
 157 34 157 34 172 33 c 0,61,62
 181 32 181 32 204 42 c 0,46,47
208 421 m 0,63,64
 323 560 323 560 313 612 c 0,65,66
 308 638 308 638 283 638 c 0,67,68
 260 638 260 638 238 611 c 0,69,70
 229 600 229 600 198.5 498.5 c 128,-1,71
 168 397 168 397 168 377 c 0,72,73
 168 373 168 373 172 378 c 0,74,75
 179 384 179 384 208 421 c 0,63,64
EndSplineSet
EndChar

StartChar: glyph
Encoding: 1043 1043 9
Width: 290
VWidth: 999
GlyphClass: 2
Flags: W
LayerCount: 2
Fore
SplineSet
52 13 m 0,0,1
 32 23 32 23 13 44 c 0,2,3
 -5 64 -5 64 -5 76 c 0,4,5
 -4 92 -4 92 10 94 c 0,6,7
 25 94 25 94 36 80 c 0,8,9
 69 42 69 42 109 42 c 0,10,11
 151 44 151 44 189 85 c 0,12,13
 216 113 216 113 275 376 c 0,14,15
 327 609 327 609 362 612 c 0,16,17
 374 612 374 612 376 594 c 0,18,19
 380 578 380 578 369 568 c 0,20,21
 356 555 356 555 283 251 c 0,22,23
 257 142 257 142 235 96 c 0,24,25
 213 48 213 48 179 25 c 0,26,27
 156 10 156 10 118 6 c 0,28,29
 72 2 72 2 52 13 c 0,0,1
134 443 m 0,30,31
 103 513 103 513 137 584 c 0,32,33
 173 655 173 655 253 673 c 0,34,35
 293 684 293 684 397 679 c 0,36,37
 504 674 504 674 505 660 c 0,38,39
 506 651 506 651 505 645 c 0,40,41
 505 641 505 641 492 639 c 0,42,43
 470 635 470 635 453 635 c 0,44,45
 430 636 430 636 386 640 c 0,46,47
 305 644 305 644 283 641 c 0,48,49
 258 639 258 639 238 628 c 0,50,51
 190 601 190 601 172 560 c 0,52,53
 154 517 154 517 168 467 c 0,54,55
 180 431 180 431 178 422 c 0,56,57
 166 395 166 395 147 422 c 0,58,59
 140 431 140 431 134 443 c 0,30,31
EndSplineSet
EndChar

StartChar: glyph
Encoding: 1075 1075 10
Width: 290
VWidth: 1027
GlyphClass: 2
Flags: W
LayerCount: 2
Fore
SplineSet
105 9 m 0,0,1
 83 25 83 25 93 61 c 0,2,3
 102 98 102 98 142 172 c 0,4,5
 194 263 194 263 193 275 c 0,6,7
 192 279 192 279 185 285 c 0,8,9
 179 289 179 289 168 291 c 0,10,11
 150 293 150 293 121 266 c 0,12,13
 94 240 94 240 56 188 c 0,14,15
 25 145 25 145 12 146 c 0,16,17
 -21 147 -21 147 20 204 c 0,18,19
 25 213 25 213 33 222 c 0,20,21
 76 281 76 281 105 305 c 0,22,23
 134 327 134 327 175 326 c 0,24,25
 227 326 227 326 228 287 c 0,26,27
 229 247 229 247 178 156 c 0,28,29
 117 47 117 47 132 32 c 0,30,31
 136 30 136 30 142 29 c 0,32,33
 175 29 175 29 248 124 c 0,34,35
 296 185 296 185 304 170 c 0,36,37
 306 166 306 166 307 159 c 0,38,39
 309 147 309 147 273.5 99.5 c 128,-1,40
 238 52 238 52 206 22 c 0,41,42
 181 2 181 2 152 -4 c 0,43,44
 125 -6 125 -6 105 9 c 0,0,1
EndSplineSet
EndChar

StartChar: glyph
Encoding: 1044 1044 11
Width: 508
VWidth: 1000
GlyphClass: 2
Flags: W
LayerCount: 2
Fore
SplineSet
303 0 m 0,0,1
 264 4 264 4 231 21 c 2,2,-1
 199 37 l 1,3,-1
 168 18 l 2,4,5
 128 -8 128 -8 67 5 c 0,6,7
 9 16 9 16 1 50 c 0,8,9
 -11 95 -11 95 31 114 c 0,10,11
 76 132 76 132 142 109 c 2,12,-1
 183 93 l 1,13,-1
 199 117 l 2,14,15
 214 143 214 143 253 327 c 0,16,17
 295 527 295 527 303 546 c 0,18,19
 314 573 314 573 325 589 c 0,20,21
 337 605 337 605 348 605 c 0,22,23
 375 605 375 605 353 562 c 0,24,25
 338 535 338 535 327 489 c 0,26,27
 315 446 315 446 283 292 c 0,28,29
 246 120 246 120 231 96 c 2,30,-1
 215 67 l 1,31,-1
 242 55 l 2,32,33
 273 43 273 43 319 39 c 0,34,35
 362 35 362 35 390 50 c 0,36,37
 417 63 417 63 443 108 c 0,38,39
 482 172 482 172 497 265 c 0,40,41
 512 359 512 359 497 439 c 0,42,43
 482 514 482 514 446 567 c 0,44,45
 408 623 408 623 370 633 c 0,46,47
 342 639 342 639 303 633 c 0,48,49
 267 629 267 629 233 609 c 0,50,51
 213 597 213 597 201 584 c 0,52,53
 189 571 189 571 174 541 c 0,54,55
 159 510 159 510 152 492 c 0,56,57
 148 480 148 480 148 432 c 0,58,59
 147 390 147 390 145 381 c 0,60,61
 144 370 144 370 132 370 c 0,62,63
 106 370 106 370 107 437 c 0,64,65
 107 496 107 496 132 553 c 0,66,67
 144 581 144 581 172 608 c 0,68,69
 199 635 199 635 224 651 c 0,70,71
 242 662 242 662 264 665 c 0,72,73
 275 667 275 667 326 668 c 0,74,75
 370 669 370 669 388 667 c 0,76,77
 404 663 404 663 422 651 c 0,78,79
 481 611 481 611 519 511 c 0,80,81
 531 478 531 478 535 466 c 0,82,83
 539 453 539 453 542 424 c 0,84,85
 546 395 546 395 546 347 c 0,86,87
 546 304 546 304 542 275 c 0,88,89
 540 246 540 246 535 231 c 0,90,91
 531 219 531 219 521 189 c 0,92,93
 498 117 498 117 460 61 c 0,94,95
 422 9 422 9 385 2 c 0,96,97
 358 -4 358 -4 343 -2 c 0,98,99
 332 -4 332 -4 303 0 c 0,0,1
142 50 m 2,100,-1
 172 61 l 1,101,-1
 152 69 l 2,102,103
 104 86 104 86 72 86 c 0,104,105
 36 85 36 85 38 64 c 0,106,107
 37 44 37 44 71 39 c 0,108,109
 105 34 105 34 142 50 c 2,100,-1
EndSplineSet
EndChar

StartChar: glyph
Encoding: 1076 1076 12
Width: 306
VWidth: 1053
GlyphClass: 2
Flags: W
LayerCount: 2
Fore
SplineSet
-15 -332 m 0,0,1
 -32 -318 -32 -318 -39 -292 c 0,2,3
 -48 -260 -48 -260 -44 -242 c 0,4,5
 -35 -206 -35 -206 -12 -171 c 0,6,7
 12 -137 12 -137 70 -78 c 0,8,9
 104 -43 104 -43 150 12 c 1,10,11
 154 29 154 29 153 33 c 0,12,13
 151 36 151 36 152 37 c 1,14,15
 133 26 133 26 130 22 c 0,16,17
 125 16 125 16 110 7 c 0,18,19
 96 -2 96 -2 78 -2 c 0,20,21
 22 -3 22 -3 6 56 c 0,22,23
 -9 111 -9 111 22 197 c 0,24,25
 50 276 50 276 96 298 c 0,26,27
 120 310 120 310 147 309 c 0,28,29
 173 309 173 309 184 299 c 0,30,31
 196 287 196 287 204 287 c 0,32,33
 213 286 213 286 215 298 c 0,34,35
 219 310 219 310 231 310 c 0,36,37
 238 310 238 310 240 304 c 0,38,39
 243 299 243 299 241 281 c 0,40,41
 238 263 238 263 233 235 c 0,42,43
 228 208 228 208 217 158 c 0,44,45
 192 55 192 55 192 45 c 0,46,47
 192 43 192 43 201 53 c 0,48,49
 209 63 209 63 221 76 c 0,50,51
 233 91 233 91 248 109 c 0,52,53
 301 176 301 176 308 172 c 0,54,55
 347 160 347 160 214 12 c 0,56,57
 195 -9 195 -9 179 -38 c 0,58,59
 169 -56 169 -56 150 -143 c 0,60,61
 129 -243 129 -243 116 -272 c 0,62,63
 99 -312 99 -312 76 -328 c 0,64,65
 58 -341 58 -341 31 -342 c 0,66,67
 0 -344 0 -344 -15 -332 c 0,0,1
62 -287 m 0,68,69
 77 -271 77 -271 86 -253 c 0,70,71
 93 -240 93 -240 104 -188 c 0,72,73
 122 -102 122 -102 128 -89 c 0,74,75
 132 -79 132 -79 128 -79 c 0,76,77
 123 -80 123 -80 77 -125 c 0,78,79
 15 -188 15 -188 -3 -234 c 0,80,81
 -22 -282 -22 -282 8 -302 c 0,82,83
 25 -313 25 -313 34 -311 c 0,84,85
 43 -308 43 -308 62 -287 c 0,68,69
117 55 m 0,86,87
 157 90 157 90 177 151 c 0,88,89
 198 216 198 216 179 248 c 0,90,91
 152 300 152 300 109 266 c 0,92,93
 58 228 58 228 44 151 c 0,94,95
 38 119 38 119 37 90 c 0,96,97
 37 50 37 50 61.5 39.5 c 128,-1,98
 86 29 86 29 117 55 c 0,86,87
EndSplineSet
EndChar

StartChar: glyph
Encoding: 1045 1045 13
Width: 365
VWidth: 999
GlyphClass: 2
Flags: W
LayerCount: 2
Fore
SplineSet
124 9 m 0,0,1
 87 21 87 21 65 40 c 128,-1,2
 43 59 43 59 26 93 c 0,3,4
 10 129 10 129 7.5 162 c 128,-1,5
 5 195 5 195 17 235 c 0,6,7
 29 274 29 274 60 313.5 c 128,-1,8
 91 353 91 353 118 363 c 2,9,-1
 145 373 l 1,10,-1
 121 399 l 2,11,12
 85 439 85 439 85.5 493 c 128,-1,13
 86 547 86 547 121 597 c 0,14,15
 152 641 152 641 183.5 654 c 128,-1,16
 215 667 215 667 264 667 c 0,17,18
 301 666 301 666 318 659 c 0,19,20
 351 646 351 646 368 628 c 0,21,22
 372 623 372 623 377.5 615.5 c 128,-1,23
 383 608 383 608 386.5 601 c 128,-1,24
 390 594 390 594 388 587.5 c 128,-1,25
 386 581 386 581 380 580 c 0,26,27
 370 578 370 578 358 594 c 0,28,29
 343 610 343 610 314 625 c 128,-1,30
 285 640 285 640 265 640 c 0,31,32
 222 640 222 640 181 607 c 128,-1,33
 140 574 140 574 129 531 c 0,34,35
 116 477 116 477 139 438.5 c 128,-1,36
 162 400 162 400 213 394 c 0,37,38
 235 390 235 390 242 387 c 128,-1,39
 249 384 249 384 249 374.5 c 128,-1,40
 249 365 249 365 241.5 360.5 c 128,-1,41
 234 356 234 356 208 353 c 0,42,43
 130 341 130 341 91 292 c 0,44,45
 52 242 52 242 47 187 c 128,-1,46
 42 132 42 132 69.5 91 c 128,-1,47
 97 50 97 50 151 39 c 0,48,49
 215 27 215 27 305 118 c 0,50,51
 366 183 366 183 376 173 c 0,52,53
 377 169 377 169 376 163 c 0,54,55
 376 136 376 136 315 74 c 0,56,57
 216 -19 216 -19 124 9 c 0,0,1
EndSplineSet
EndChar

StartChar: glyph
Encoding: 1077 1077 14
Width: 239
VWidth: 1028
GlyphClass: 2
Flags: W
LayerCount: 2
Fore
SplineSet
53 5 m 0,0,1
 20 16 20 16 9 45 c 128,-1,2
 -2 74 -2 74 1.5 125.5 c 128,-1,3
 5 177 5 177 14 201.5 c 128,-1,4
 23 226 23 226 45 255 c 0,5,6
 72 291 72 291 109.5 306 c 128,-1,7
 147 321 147 321 174 311.5 c 128,-1,8
 201 302 201 302 201 270 c 0,9,10
 201 226 201 226 161 185 c 0,11,12
 143 165 143 165 107.5 147 c 128,-1,13
 72 129 72 129 52 129 c 0,14,15
 42 129 42 129 39.5 123 c 128,-1,16
 37 117 37 117 37 98 c 0,17,18
 37 62 37 62 46 49 c 128,-1,19
 55 36 55 36 80 36 c 0,20,21
 134 36 134 36 201 128 c 0,22,23
 228 166 228 166 236 172.5 c 128,-1,24
 244 179 244 179 255 167 c 0,25,26
 270 150 270 150 199 69 c 0,27,28
 159 25 159 25 124.5 9 c 128,-1,29
 90 -7 90 -7 53 5 c 0,0,1
105 188 m 0,30,31
 144 210 144 210 161.5 240 c 128,-1,32
 179 270 179 270 161 281 c 0,33,34
 141 293 141 293 100 259.5 c 128,-1,35
 59 226 59 226 48 188 c 0,36,37
 43 168 43 168 43 165 c 128,-1,38
 43 162 43 162 55 166 c 0,39,40
 72 170 72 170 105 188 c 0,30,31
EndSplineSet
EndChar

StartChar: glyph
Encoding: 1046 1046 15
Width: 867
VWidth: 1000
GlyphClass: 2
Flags: W
LayerCount: 2
Fore
SplineSet
65 13 m 0,0,1
 43 26 43 26 29 47.5 c 128,-1,2
 15 69 15 69 4 107 c 0,3,4
 -8 146 -8 146 2 153 c 0,5,6
 13 162 13 162 21 152.5 c 128,-1,7
 29 143 29 143 37 117 c 0,8,9
 47 81 47 81 59.5 63 c 128,-1,10
 72 45 72 45 94 39 c 0,11,12
 122 30 122 30 143 37.5 c 128,-1,13
 164 45 164 45 191 75 c 0,14,15
 235 127 235 127 275 263 c 128,-1,16
 315 399 315 399 318 509 c 0,17,18
 318 562 318 562 315.5 579.5 c 128,-1,19
 313 597 313 597 303 612 c 0,20,21
 276 649 276 649 232 635 c 0,22,23
 194 624 194 624 161.5 571.5 c 128,-1,24
 129 519 129 519 129 466 c 0,25,26
 129 440 129 440 126.5 435 c 128,-1,27
 124 430 124 430 111.5 431.5 c 128,-1,28
 99 433 99 433 96.5 440.5 c 128,-1,29
 94 448 94 448 96 480 c 0,30,31
 97 519 97 519 115.5 560 c 128,-1,32
 134 601 134 601 162 632 c 0,33,34
 180 652 180 652 193 657 c 128,-1,35
 206 662 206 662 240 665 c 0,36,37
 283 669 283 669 301.5 661.5 c 128,-1,38
 320 654 320 654 335 628 c 0,39,40
 348 603 348 603 348 505.5 c 128,-1,41
 348 408 348 408 334 358 c 0,42,43
 322 314 322 314 325 311 c 0,44,45
 325 310 325 310 338 334 c 128,-1,46
 351 358 351 358 371 399 c 128,-1,47
 391 440 391 440 415 489 c 0,48,49
 474 608 474 608 492 637.5 c 128,-1,50
 510 667 510 667 524 667 c 0,51,52
 525 667 l 0,53,54
 537 665 537 665 536 646.5 c 128,-1,55
 535 628 535 628 510 522 c 0,56,57
 506 510 506 510 506 503 c 0,58,59
 421 129 421 129 422 124 c 0,60,61
 422 123 422 123 456.5 184.5 c 128,-1,62
 491 246 491 246 539 335 c 128,-1,63
 587 424 587 424 624 495 c 0,64,65
 677 593 677 593 699 621 c 0,66,67
 730 657 730 657 772 665 c 128,-1,68
 814 673 814 673 847 654 c 0,69,70
 865 642 865 642 885 609 c 128,-1,71
 905 576 905 576 901 564 c 0,72,73
 890 538 890 538 868 567 c 0,74,75
 864 573 864 573 860 581 c 0,76,77
 832 640 832 640 790 633 c 0,78,79
 772 631 772 631 764 629 c 0,80,81
 758 628 758 628 739 608.5 c 128,-1,82
 720 589 720 589 705 570 c 0,83,84
 669 522 669 522 637 390.5 c 128,-1,85
 605 259 605 259 605 173 c 0,86,87
 605 95 605 95 624 66 c 128,-1,88
 643 37 643 37 697 37 c 0,89,90
 725 37 725 37 738 43.5 c 128,-1,91
 751 50 751 50 786 87 c 0,92,93
 834 135 834 135 849 157 c 0,94,95
 861 172 861 172 866 175.5 c 128,-1,96
 871 179 871 179 879.5 168.5 c 128,-1,97
 888 158 888 158 886 150.5 c 128,-1,98
 884 143 884 143 863 117 c 0,99,100
 832 75 832 75 795.5 45 c 128,-1,101
 759 15 759 15 733 6 c 0,102,103
 685 -6 685 -6 645 10 c 128,-1,104
 605 26 605 26 584 64 c 0,105,106
 572 87 572 87 571.5 159.5 c 128,-1,107
 571 232 571 232 585 299 c 0,108,109
 597 364 597 364 595 365 c 1,110,111
 591 359 l 0,112,113
 587 353 587 353 580.5 341.5 c 128,-1,114
 574 330 574 330 567 316 c 0,115,116
 455 105 455 105 423 52.5 c 128,-1,117
 391 0 391 0 379 0 c 128,-1,118
 367 0 367 0 367 14.5 c 128,-1,119
 367 29 367 29 376 76 c 0,120,121
 388 134 388 134 400 185 c 0,122,123
 466 496 466 496 480 526 c 0,124,125
 489 548 489 548 475 526 c 0,126,127
 457 493 457 493 364 313 c 0,128,129
 251 90 251 90 233 66 c 0,130,131
 205 23 205 23 153.5 7 c 128,-1,132
 102 -9 102 -9 65 13 c 0,0,1
EndSplineSet
EndChar

StartChar: glyph
Encoding: 1078 1078 16
Width: 551
VWidth: 1028
GlyphClass: 2
Flags: W
LayerCount: 2
Fore
SplineSet
228 2 m 0,0,1
 222 6 222 6 224 25.5 c 128,-1,2
 226 45 226 45 238 108 c 0,3,4
 260 206 260 206 256 210 c 0,5,6
 255 210 255 210 249 199.5 c 128,-1,7
 243 189 243 189 232.5 171 c 128,-1,8
 222 153 222 153 212 130 c 0,9,10
 174 58 174 58 151 33.5 c 128,-1,11
 128 9 128 9 93 5 c 0,12,13
 70 3 70 3 59.5 5 c 128,-1,14
 49 7 49 7 34 23 c 0,15,16
 11 46 11 46 10 61 c 0,17,18
 10 79 10 79 31 70 c 0,19,20
 43 66 43 66 53 52 c 0,21,22
 71 34 71 34 87 34 c 128,-1,23
 103 34 103 34 124 58 c 0,24,25
 146 80 146 80 159 119 c 128,-1,26
 172 158 172 158 173 202 c 0,27,28
 175 288 175 288 139 282 c 0,29,30
 103 276 103 276 44 188 c 0,31,32
 1 127 1 127 -11 156 c 0,33,34
 -15 168 -15 168 11.5 206.5 c 128,-1,35
 38 245 38 245 76 288 c 0,36,37
 99 313 99 313 128 318 c 128,-1,38
 157 323 157 323 178 308 c 0,39,40
 190 298 190 298 197 285.5 c 128,-1,41
 204 273 204 273 207 245 c 0,42,43
 213 205 213 205 217 204 c 256,44,45
 219 204 219 204 226 218 c 0,46,47
 246 263 246 263 270 293.5 c 128,-1,48
 294 324 294 324 304 318 c 0,49,50
 314 313 314 313 311 287.5 c 128,-1,51
 308 262 308 262 292 183 c 0,52,53
 270 83 l 0,54,55
 271 83 271 83 277 94 c 128,-1,56
 283 105 283 105 295.5 125.5 c 128,-1,57
 308 146 308 146 321 172 c 0,58,59
 338 205 338 205 379 266 c 0,60,61
 385 277 385 277 395 288 c 0,62,63
 404 297 404 297 416 304 c 0,64,65
 453 329 453 329 482 313.5 c 128,-1,66
 511 298 511 298 519 256 c 0,67,68
 523 238 523 238 521 233 c 128,-1,69
 519 228 519 228 508 228 c 0,70,71
 492 228 492 228 482 255 c 0,72,73
 477 271 477 271 471 276.5 c 128,-1,74
 465 282 465 282 454 282 c 0,75,76
 427 282 427 282 396 230.5 c 128,-1,77
 365 179 365 179 362 115 c 0,78,79
 358 71 358 71 365.5 52 c 128,-1,80
 373 33 373 33 397 33 c 0,81,82
 439 33 439 33 503 124 c 0,83,84
 539 174 539 174 553 174 c 0,85,86
 579 174 579 174 556 136 c 0,87,88
 545 120 545 120 526 92 c 0,89,90
 488 39 488 39 460.5 21.5 c 128,-1,91
 433 4 433 4 397 2 c 0,92,93
 360 2 360 2 343.5 20.5 c 128,-1,94
 327 39 327 39 326 80 c 2,95,-1
 326 119 l 1,96,-1
 296 65 l 2,97,98
 273 22 273 22 256.5 7.5 c 128,-1,99
 240 -7 240 -7 228 2 c 0,0,1
EndSplineSet
EndChar

StartChar: glyph
Encoding: 1047 1047 17
Width: 380
VWidth: 1000
GlyphClass: 2
Flags: W
LayerCount: 2
Fore
SplineSet
94 13 m 0,0,1
 61 30 61 30 30.5 74 c 128,-1,2
 0 118 0 118 5 136 c 0,3,4
 10 149 10 149 23 145 c 128,-1,5
 36 141 36 141 44 124 c 0,6,7
 64 86 64 86 105 57.5 c 128,-1,8
 146 29 146 29 185 29 c 0,9,10
 233 29 233 29 271.5 62.5 c 128,-1,11
 310 96 310 96 326.5 140.5 c 128,-1,12
 343 185 343 185 335 233.5 c 128,-1,13
 327 282 327 282 292 314 c 0,14,15
 272 329 272 329 255 335 c 128,-1,16
 238 341 238 341 201 343 c 0,17,18
 183 344 183 344 175.5 348.5 c 128,-1,19
 168 353 168 353 167 362 c 0,20,21
 165 373 165 373 170 378 c 128,-1,22
 175 383 175 383 188 384 c 0,23,24
 279 404 279 404 322 430.5 c 128,-1,25
 365 457 365 457 374 500 c 0,26,27
 389 552 389 552 358 590 c 128,-1,28
 327 628 327 628 272 628 c 0,29,30
 235 628 235 628 192.5 604.5 c 128,-1,31
 150 581 150 581 150 562 c 0,32,33
 150 553 150 553 141 552 c 128,-1,34
 132 551 132 551 120 559 c 0,35,36
 108 565 108 565 118.5 589 c 128,-1,37
 129 613 129 613 151 628 c 0,38,39
 203 665 203 665 261.5 667.5 c 128,-1,40
 320 670 320 670 364 638.5 c 128,-1,41
 408 607 408 607 419 553 c 0,42,43
 423 526 423 526 414 489.5 c 128,-1,44
 405 453 405 453 388 430 c 0,45,46
 373 410 373 410 342 391.5 c 128,-1,47
 311 373 311 373 297 373 c 0,48,49
 284 373 284 373 309 355 c 128,-1,50
 334 337 334 337 357 294 c 0,51,52
 396 218 396 218 368.5 132.5 c 128,-1,53
 341 47 341 47 265 13 c 0,54,55
 232 -2 232 -2 177 -2 c 128,-1,56
 122 -2 122 -2 94 13 c 0,0,1
EndSplineSet
EndChar

StartChar: glyph
Encoding: 1079 1079 18
Width: 294
VWidth: 1054
GlyphClass: 2
Flags: W
LayerCount: 2
Fore
SplineSet
-7 -332 m 0,0,1
 -40 -310 -40 -310 -37 -245.5 c 128,-1,2
 -34 -181 -34 -181 2 -128 c 0,3,4
 29 -88 29 -88 76 -42 c 0,5,6
 119 1 119 1 115 9 c 0,7,8
 114 11 114 11 109 13 c 0,9,10
 94 22 94 22 58 16 c 0,11,12
 35 12 35 12 28.5 14 c 128,-1,13
 22 16 22 16 22 27 c 0,14,15
 22 42 22 42 64 56 c 0,16,17
 130 79 130 79 174 154 c 128,-1,18
 218 229 218 229 194 275 c 0,19,20
 188 288 188 288 164 289.5 c 128,-1,21
 140 291 140 291 120 277 c 0,22,23
 102 265 102 265 64.5 211 c 128,-1,24
 27 157 27 157 15 159 c 0,25,26
 2 163 2 163 2 177 c 128,-1,27
 2 191 2 191 20 215 c 0,28,29
 40 243 40 243 61 270 c 0,30,31
 100 324 100 324 163 325 c 0,32,33
 202 326 202 326 215.5 309.5 c 128,-1,34
 229 293 229 293 233 246 c 0,35,36
 234 215 234 215 231.5 198 c 128,-1,37
 229 181 229 181 216 156 c 0,38,39
 185 92 185 92 140 60 c 2,40,-1
 123 49 l 1,41,-1
 139 39 l 2,42,43
 151 34 151 34 159.5 37 c 128,-1,44
 168 40 168 40 189 59 c 0,45,46
 222 90 222 90 257 139.5 c 128,-1,47
 292 189 292 189 299 189 c 0,48,49
 326 189 326 189 291 128 c 0,50,51
 264 83 264 83 212 32 c 2,52,-1
 172 -10 l 1,53,-1
 172 -70 l 2,54,55
 172 -136 172 -136 151.5 -200 c 128,-1,56
 131 -264 131 -264 98.5 -304.5 c 128,-1,57
 66 -345 66 -345 33 -345 c 0,58,59
 9 -344 9 -344 -7 -332 c 0,0,1
82 -258 m 0,60,61
 107 -216 107 -216 118 -178 c 0,62,63
 124 -152 124 -152 130 -118.5 c 128,-1,64
 136 -85 136 -85 136.5 -64.5 c 128,-1,65
 137 -44 137 -44 134 -40 c 0,66,67
 122 -40 122 -40 72 -101 c 128,-1,68
 22 -162 22 -162 9 -191 c 0,69,70
 -2 -218 -2 -218 -1 -252 c 128,-1,71
 0 -286 0 -286 11 -298 c 0,72,73
 39 -329 39 -329 82 -258 c 0,60,61
EndSplineSet
EndChar

StartChar: glyph
Encoding: 1048 1048 19
Width: 466
VWidth: 1000
GlyphClass: 2
Flags: W
LayerCount: 2
Fore
SplineSet
43 6 m 0,0,1
 27 16 27 16 16 41 c 128,-1,2
 5 66 5 66 5 97 c 0,3,4
 5 136 5 136 40 292 c 0,5,6
 83 494 83 494 91 540.5 c 128,-1,7
 99 587 99 587 94 605 c 0,8,9
 84 632 84 632 48.5 630.5 c 128,-1,10
 13 629 13 629 -12 601 c 0,11,12
 -60 549 -60 549 -53 464 c 0,13,14
 -51 431 -51 431 -52 421.5 c 128,-1,15
 -53 412 -53 412 -61 408 c 0,16,17
 -77 403 -77 403 -85 423 c 128,-1,18
 -93 443 -93 443 -93 487 c 0,19,20
 -93 532 -93 532 -81 565 c 128,-1,21
 -69 598 -69 598 -39 628 c 0,22,23
 -19 650 -19 650 0.5 659 c 128,-1,24
 20 668 20 668 48 668 c 0,25,26
 109 668 109 668 128 621 c 128,-1,27
 147 574 147 574 121 477 c 0,28,29
 106 419 106 419 98.5 372.5 c 128,-1,30
 91 326 91 326 66 231 c 0,31,32
 21 38 21 38 82 34 c 0,33,34
 104 34 104 34 157.5 113.5 c 128,-1,35
 211 193 211 193 272 311 c 0,36,37
 315 396 315 396 333.5 447 c 128,-1,38
 352 498 352 498 368 570 c 0,39,40
 388 653 388 653 401.5 662.5 c 128,-1,41
 415 672 415 672 421 661.5 c 128,-1,42
 427 651 427 651 362 362 c 0,43,44
 312 140 312 140 307 86.5 c 128,-1,45
 302 33 302 33 324 29 c 0,46,47
 336 27 336 27 366.5 56 c 128,-1,48
 397 85 397 85 422 123 c 0,49,50
 455 168 455 168 468 168 c 0,51,52
 495 168 495 168 468 125 c 0,53,54
 456 107 456 107 433 71 c 0,55,56
 407 35 407 35 376 17 c 128,-1,57
 345 -1 345 -1 319 -1 c 0,58,59
 302 -1 302 -1 286.5 13 c 128,-1,60
 271 27 271 27 265 47 c 0,61,62
 261 59 261 59 274.5 136 c 128,-1,63
 288 213 288 213 304 282 c 0,64,65
 305 287 305 287 299 277 c 0,66,67
 287 257 287 257 264 211 c 0,68,69
 130 -46 130 -46 43 6 c 0,0,1
EndSplineSet
EndChar

StartChar: glyph
Encoding: 1080 1080 20
Width: 402
VWidth: 1028
GlyphClass: 2
Flags: W
LayerCount: 2
Fore
SplineSet
117 7 m 0,0,1
 102 16 102 16 103.5 54 c 128,-1,2
 105 92 105 92 123 177 c 0,3,4
 143 271 143 271 137 277 c 0,5,6
 133 281 133 281 122.5 272.5 c 128,-1,7
 112 264 112 264 96 245 c 128,-1,8
 80 226 80 226 61 199 c 0,9,10
 36 163 36 163 23.5 154 c 128,-1,11
 11 145 11 145 0 155.5 c 128,-1,12
 -11 166 -11 166 33 227 c 128,-1,13
 77 288 77 288 107 304 c 0,14,15
 130 316 130 316 137.5 316 c 128,-1,16
 145 316 145 316 161 307 c 0,17,18
 181 295 181 295 179.5 267 c 128,-1,19
 178 239 178 239 152 136 c 0,20,21
 130 45 130 45 135 42 c 0,22,23
 147 30 147 30 183.5 72.5 c 128,-1,24
 220 115 220 115 251 176.5 c 128,-1,25
 282 238 282 238 282 271 c 0,26,27
 282 284 282 284 297 303 c 0,28,29
 306 314 306 314 308.5 314.5 c 128,-1,30
 311 315 311 315 319 308 c 0,31,32
 323 302 323 302 319.5 276.5 c 128,-1,33
 316 251 316 251 302 184 c 0,34,35
 275 72 275 72 275 55 c 0,36,37
 275 18 275 18 314 61 c 0,38,39
 339 87 339 87 370 136 c 0,40,41
 386 163 386 163 394.5 170 c 128,-1,42
 403 177 403 177 410 172 c 0,43,44
 421 162 421 162 421 155 c 0,45,46
 421 149 421 149 384.5 96 c 128,-1,47
 348 43 348 43 327 21 c 0,48,49
 294 -12 294 -12 261.5 3 c 128,-1,50
 229 18 229 18 238 64 c 2,51,-1
 243 90 l 1,52,-1
 229 65 l 2,53,54
 203 25 203 25 172.5 9.5 c 128,-1,55
 142 -6 142 -6 117 7 c 0,0,1
EndSplineSet
EndChar

StartChar: glyph
Encoding: 1049 1049 21
Width: 461
VWidth: 1000
GlyphClass: 2
Flags: W
LayerCount: 2
Fore
SplineSet
43.5 5 m 128,-1,1
 20 17 20 17 12 40 c 0,2,3
 0 76 0 76 8 128.5 c 128,-1,4
 16 181 16 181 76 454 c 0,5,6
 93 537 93 537 93.5 568.5 c 128,-1,7
 94 600 94 600 75 613 c 0,8,9
 47 631 47 631 10 608.5 c 128,-1,10
 -27 586 -27 586 -48 535 c 0,11,12
 -58 510 -58 510 -55 455 c 0,13,14
 -54 416 -54 416 -56 408 c 128,-1,15
 -58 400 -58 400 -67 397 c 0,16,17
 -77 396 -77 396 -81.5 400.5 c 128,-1,18
 -86 405 -86 405 -90 418 c 0,19,20
 -106 499 -106 499 -77 564.5 c 128,-1,21
 -48 630 -48 630 13 649 c 0,22,23
 68 665 68 665 100 642 c 128,-1,24
 132 619 132 619 132 564 c 0,25,26
 132 526 132 526 87.5 322 c 128,-1,27
 43 118 43 118 43 89 c 128,-1,28
 43 60 43 60 56 45 c 0,29,30
 67 34 67 34 72.5 33.5 c 128,-1,31
 78 33 78 33 94 43 c 0,32,33
 144 68 144 68 235.5 243 c 128,-1,34
 327 418 327 418 358 547 c 0,35,36
 359 551 359 551 362 560 c 0,37,38
 377 624 377 624 380.5 635 c 128,-1,39
 384 646 384 646 394 650 c 0,40,41
 395 650 395 650 396 650 c 0,42,43
 411 655 411 655 416.5 645 c 128,-1,44
 422 635 422 635 413 609 c 0,45,46
 407 581 407 581 384.5 478.5 c 128,-1,47
 362 376 362 376 335 259 c 0,48,49
 307 130 307 130 301.5 94 c 128,-1,50
 296 58 296 58 300 45 c 0,51,52
 326 -5 326 -5 413 115 c 0,53,54
 453 168 453 168 459 168.5 c 128,-1,55
 465 169 465 169 473 157 c 0,56,57
 477 152 477 152 472 140 c 128,-1,58
 467 128 467 128 446 99 c 0,59,60
 410 51 410 51 387 29 c 128,-1,61
 364 7 364 7 337 0 c 0,62,63
 281 -15 281 -15 262 45 c 0,64,65
 257 62 257 62 259.5 86 c 128,-1,66
 262 110 262 110 277 175 c 0,67,68
 300 274 300 274 300 285 c 1,69,-1
 286 259 l 2,70,71
 275 241 275 241 262 213 c 0,72,73
 214 117 214 117 169 61.5 c 128,-1,74
 124 6 124 6 86 -1 c 0,75,0
 67 -7 67 -7 43.5 5 c 128,-1,1
202 556 m 0,76,77
 186 562 186 562 186 579 c 0,78,79
 186 590 186 590 190.5 591 c 128,-1,80
 195 592 195 592 216.5 589.5 c 128,-1,81
 238 587 238 587 248 589.5 c 128,-1,82
 258 592 258 592 273 608 c 0,83,84
 296 633 296 633 307.5 652 c 128,-1,85
 319 671 319 671 334 665 c 0,86,87
 365 653 365 653 318 601 c 0,88,89
 287 564 287 564 258.5 554 c 128,-1,90
 230 544 230 544 202 556 c 0,76,77
EndSplineSet
EndChar

StartChar: glyph
Encoding: 1081 1081 22
Width: 402
VWidth: 1019
GlyphClass: 2
Flags: W
LayerCount: 2
Fore
SplineSet
113 -4 m 0,0,1
 100 5 100 5 102 43.5 c 128,-1,2
 104 82 104 82 121 167 c 0,3,4
 141 263 141 263 137 266 c 256,5,6
 133 270 133 270 121.5 262 c 128,-1,7
 110 254 110 254 93.5 234.5 c 128,-1,8
 77 215 77 215 61 189 c 0,9,10
 36 153 36 153 22.5 142.5 c 128,-1,11
 9 132 9 132 -1.5 144 c 128,-1,12
 -12 156 -12 156 32 217 c 128,-1,13
 76 278 76 278 105 293 c 0,14,15
 128 305 128 305 136.5 306.5 c 128,-1,16
 145 308 145 308 159 298 c 0,17,18
 172 288 172 288 175.5 277 c 128,-1,19
 179 266 179 266 175.5 239.5 c 128,-1,20
 172 213 172 213 153 143 c 0,21,22
 128 36 128 36 134 29 c 0,23,24
 140 23 140 23 157.5 33.5 c 128,-1,25
 175 44 175 44 193 71 c 0,26,27
 220 108 220 108 246.5 161.5 c 128,-1,28
 273 215 273 215 278 242 c 0,29,30
 282 275 282 275 296 292 c 0,31,32
 305 304 305 304 307.5 305.5 c 128,-1,33
 310 307 310 307 318 299.5 c 128,-1,34
 326 292 326 292 322.5 270.5 c 128,-1,35
 319 249 319 249 302 174 c 0,36,37
 275 61 275 61 273 43 c 0,38,39
 273 6 273 6 314 49 c 0,40,41
 340 75 340 75 370 126 c 0,42,43
 387 153 387 153 395 160 c 128,-1,44
 403 167 403 167 410 161 c 0,45,46
 422 151 422 151 422 143 c 0,47,48
 422 133 422 133 376 71.5 c 128,-1,49
 330 10 330 10 315 1 c 0,50,51
 282 -21 282 -21 256.5 -4.5 c 128,-1,52
 231 12 231 12 238 52 c 2,53,-1
 243 78 l 1,54,-1
 220 44 l 2,55,56
 161 -31 161 -31 113 -4 c 0,0,1
210 321 m 0,57,58
 188 331 188 331 188 354 c 0,59,60
 188 365 188 365 220 359 c 0,61,62
 240 355 240 355 250 359 c 128,-1,63
 260 363 260 363 277 380 c 0,64,65
 302 405 302 405 314 424.5 c 128,-1,66
 326 444 326 444 338 439 c 256,67,68
 350 435 350 435 351 418.5 c 128,-1,69
 352 402 352 402 340.5 396.5 c 128,-1,70
 329 391 329 391 332 386 c 0,71,72
 334 382 334 382 310.5 358.5 c 128,-1,73
 287 335 287 335 270 326 c 0,74,75
 238 310 238 310 210 321 c 0,57,58
EndSplineSet
EndChar

StartChar: glyph
Encoding: 1050 1050 23
Width: 652
VWidth: 1000
GlyphClass: 2
Flags: W
LayerCount: 2
Fore
SplineSet
43 11 m 0,0,1
 20 23 20 23 5 45 c 128,-1,2
 -10 67 -10 67 -2 80 c 0,3,4
 3 90 3 90 18 88 c 128,-1,5
 33 86 33 86 33 76 c 0,6,7
 33 63 33 63 55.5 47.5 c 128,-1,8
 78 32 78 32 99 32 c 0,9,10
 151 32 151 32 190 87 c 0,11,12
 202 103 202 103 213 143 c 128,-1,13
 224 183 224 183 245 280 c 0,14,15
 310 576 310 576 325 608 c 0,16,17
 329 618 329 618 327 619.5 c 128,-1,18
 325 621 325 621 314 614 c 0,19,20
 276 594 276 594 222 618 c 0,21,22
 185 631 185 631 162.5 626 c 128,-1,23
 140 621 140 621 140 597 c 0,24,25
 140 584 140 584 129 579 c 128,-1,26
 118 574 118 574 107 584 c 0,27,28
 95 594 95 594 103.5 615 c 128,-1,29
 112 636 112 636 131 651 c 0,30,31
 167 678 167 678 232 656 c 0,32,33
 257 646 257 646 295.5 648 c 128,-1,34
 334 650 334 650 341 660 c 0,35,36
 345 670 345 670 359.5 668.5 c 128,-1,37
 374 667 374 667 379 657 c 0,38,39
 383 645 383 645 368 613 c 0,40,41
 346 565 346 565 319 444 c 0,42,43
 252 120 252 120 232 83 c 0,44,45
 219 57 219 57 190.5 34 c 128,-1,46
 162 11 162 11 137 4 c 0,47,48
 104 -6 104 -6 87 -4 c 128,-1,49
 70 -2 70 -2 43 11 c 0,0,1
471 11 m 0,50,51
 443 44 443 44 476 189 c 0,52,53
 496 276 496 276 497 291 c 0,54,55
 497 318 497 318 463 324.5 c 128,-1,56
 429 331 429 331 374 315 c 0,57,58
 334 303 334 303 324 308 c 0,59,60
 306 314 306 314 320 363 c 128,-1,61
 334 412 334 412 374 483 c 0,62,63
 399 526 399 526 451.5 585 c 128,-1,64
 504 644 504 644 531 657 c 0,65,66
 551 668 551 668 581 668 c 128,-1,67
 611 668 611 668 629.5 658.5 c 128,-1,68
 648 649 648 649 641 634 c 0,69,70
 639 625 639 625 632 623.5 c 128,-1,71
 625 622 625 622 606 627 c 0,72,73
 575 631 575 631 557.5 626.5 c 128,-1,74
 540 622 540 622 507.5 591 c 128,-1,75
 475 560 475 560 445 522 c 0,76,77
 425 495 425 495 388 426.5 c 128,-1,78
 351 358 351 358 353 354 c 0,79,80
 355 352 355 352 407 365 c 0,81,82
 444 374 444 374 455.5 373.5 c 128,-1,83
 467 373 467 373 486 363 c 0,84,85
 513 351 513 351 527 321 c 0,86,87
 536 301 536 301 534 283 c 128,-1,88
 532 265 532 265 518 196 c 0,89,90
 498 99 498 99 493 69 c 0,91,92
 493 49 493 49 496.5 42.5 c 128,-1,93
 500 36 500 36 516 34 c 0,94,95
 534 32 534 32 565 60 c 128,-1,96
 596 88 596 88 625 135 c 0,97,98
 658 183 658 183 671 166 c 0,99,100
 672 162 672 162 673 153 c 0,101,102
 675 138 675 138 632 83.5 c 128,-1,103
 589 29 589 29 560 12 c 0,104,105
 534 -3 534 -3 509 -3.5 c 128,-1,106
 484 -4 484 -4 471 11 c 0,50,51
EndSplineSet
EndChar

StartChar: glyph
Encoding: 1082 1082 24
Width: 364
VWidth: 1028
GlyphClass: 2
Flags: W
LayerCount: 2
Fore
SplineSet
80 9 m 0,0,1
 80 18 80 18 110 139 c 0,2,3
 122 187 122 187 128.5 214.5 c 128,-1,4
 135 242 135 242 138.5 259.5 c 128,-1,5
 142 277 142 277 141 283 c 128,-1,6
 140 289 140 289 135 289 c 0,7,8
 130 289 130 289 114 268.5 c 128,-1,9
 98 248 98 248 90.5 240 c 128,-1,10
 83 232 83 232 56 189 c 0,11,12
 20 137 20 137 4 151 c 0,13,14
 0 153 0 153 0 159 c 0,15,16
 -4 169 -4 169 40.5 230 c 128,-1,17
 85 291 85 291 105 305 c 0,18,19
 125 321 125 321 146 316 c 0,20,21
 188 305 188 305 168 234 c 0,22,23
 156 192 156 192 156 184 c 0,24,25
 156 180 156 180 168 196 c 0,26,27
 204 241 204 241 216 266 c 1,28,29
 234 291 234 291 257.5 305.5 c 128,-1,30
 281 320 281 320 293 316 c 0,31,32
 311 312 311 312 327 296 c 128,-1,33
 343 280 343 280 340 267 c 0,34,35
 336 255 336 255 324.5 256.5 c 128,-1,36
 313 258 313 258 302 273 c 0,37,38
 292 284 292 284 287.5 283.5 c 128,-1,39
 283 283 283 283 271 276 c 0,40,41
 251 264 251 264 224 228 c 0,42,43
 208 203 208 203 206 189 c 128,-1,44
 204 175 204 175 206 130 c 0,45,46
 210 66 210 66 218 48 c 0,47,48
 224 36 224 36 228.5 35 c 128,-1,49
 233 34 233 34 245 42 c 0,50,51
 261 54 261 54 307 110 c 0,52,53
 360 177 360 177 373 169 c 0,54,55
 375 168 375 168 379 162 c 0,56,57
 381 153 381 153 358 116.5 c 128,-1,58
 335 80 335 80 300 39 c 0,59,60
 288 23 288 23 265.5 11.5 c 128,-1,61
 243 0 243 0 228 0 c 0,62,63
 211 0 211 0 195.5 27.5 c 128,-1,64
 180 55 180 55 177 92 c 2,65,-1
 172 134 l 1,66,-1
 145 82 l 2,67,68
 119 29 119 29 114 12 c 0,69,70
 112 6 112 6 104 2 c 128,-1,71
 96 -2 96 -2 88 0.5 c 128,-1,72
 80 3 80 3 80 9 c 0,0,1
EndSplineSet
EndChar

StartChar: glyph
Encoding: 1051 1051 25
Width: 576
VWidth: 1000
GlyphClass: 2
Flags: W
LayerCount: 2
Fore
SplineSet
16 13 m 0,0,1
 -4 31 -4 31 3.5 80 c 128,-1,2
 11 129 11 129 37 153 c 0,3,4
 49 165 49 165 54 166 c 128,-1,5
 59 167 59 167 67.5 158.5 c 128,-1,6
 76 150 76 150 75.5 143 c 128,-1,7
 75 136 75 136 59 113 c 0,8,9
 23 55 23 55 48 39 c 0,10,11
 60 30 60 30 89.5 42 c 128,-1,12
 119 54 119 54 146 80 c 0,13,14
 194 123 194 123 240.5 199.5 c 128,-1,15
 287 276 287 276 406 510 c 0,16,17
 458 613 458 613 474.5 639 c 128,-1,18
 491 665 491 665 504 667 c 0,19,20
 522 669 522 669 527 665 c 0,21,22
 533 649 533 649 492 464 c 0,23,24
 487 437 487 437 448 261 c 0,25,26
 415 116 415 116 412.5 78 c 128,-1,27
 410 40 410 40 433 37 c 0,28,29
 455 35 455 35 485.5 66.5 c 128,-1,30
 516 98 516 98 567 175 c 0,31,32
 571 177 571 177 576 175 c 128,-1,33
 581 173 581 173 588 165.5 c 128,-1,34
 595 158 595 158 595 156 c 0,35,36
 595 138 595 138 547 79.5 c 128,-1,37
 499 21 499 21 471 7 c 0,38,39
 451 -3 451 -3 423 -1 c 0,40,41
 396 -1 396 -1 384 15 c 128,-1,42
 372 31 372 31 372 69 c 0,43,44
 372 89 372 89 417 302.5 c 128,-1,45
 462 516 462 516 476 546 c 0,46,47
 487 573 487 573 464 535 c 0,48,49
 441 493 441 493 384 384 c 0,50,51
 304 226 304 226 271 168 c 0,52,53
 244 120 244 120 195.5 70.5 c 128,-1,54
 147 21 147 21 119 10 c 128,-1,55
 91 -1 91 -1 60 -0.5 c 128,-1,56
 29 0 29 0 16 13 c 0,0,1
EndSplineSet
EndChar

StartChar: glyph
Encoding: 1083 1083 26
Width: 342
VWidth: 1028
GlyphClass: 2
Flags: W
LayerCount: 2
Fore
SplineSet
17 16 m 0,0,1
 7 26 7 26 4 42 c 128,-1,2
 1 58 1 58 1 92 c 256,3,4
 1 128 1 128 3 139.5 c 128,-1,5
 5 151 5 151 12 151 c 0,6,7
 24 151 24 151 27 114 c 0,8,9
 29 71 29 71 34 55 c 128,-1,10
 39 39 39 39 52 39 c 0,11,12
 92 39 92 39 172 206 c 0,13,14
 209 281 209 281 226.5 302.5 c 128,-1,15
 244 324 244 324 262 313 c 0,16,17
 271 309 271 309 270.5 295 c 128,-1,18
 270 281 270 281 259 238 c 0,19,20
 247 188 247 188 231 121 c 0,21,22
 214 49 214 49 226 40 c 128,-1,23
 238 31 238 31 281 91 c 128,-1,24
 324 151 324 151 335 162 c 128,-1,25
 346 173 346 173 357 166 c 0,26,27
 366 160 366 160 361.5 147 c 128,-1,28
 357 134 357 134 330 97 c 0,29,30
 285 31 285 31 252.5 10 c 128,-1,31
 220 -11 220 -11 196 12 c 0,32,33
 184 24 184 24 184.5 51 c 128,-1,34
 185 78 185 78 201 136 c 0,35,36
 216 195 216 195 215 206 c 0,37,38
 215 208 215 208 206 194 c 0,39,40
 195 177 195 177 179 143 c 0,41,42
 115 14 115 14 59 4 c 0,43,44
 32 -1 32 -1 17 16 c 0,0,1
EndSplineSet
EndChar

StartChar: glyph
Encoding: 1052 1052 27
Width: 784
VWidth: 1000
GlyphClass: 2
Flags: W
LayerCount: 2
Fore
SplineSet
13 12 m 0,0,1
 -2 32 -2 32 -1.5 65 c 128,-1,2
 -1 98 -1 98 13.5 129.5 c 128,-1,3
 28 161 28 161 52 166 c 0,4,5
 69 168 69 168 66 148 c 0,6,7
 66 132 66 132 52 109 c 0,8,9
 39 89 39 89 37.5 65.5 c 128,-1,10
 36 42 36 42 50 37 c 0,11,12
 61 33 61 33 87 45.5 c 128,-1,13
 113 58 113 58 142 80 c 0,14,15
 192 119 192 119 298.5 307 c 128,-1,16
 405 495 405 495 429 594 c 0,17,18
 446 660 446 660 461 667 c 0,19,20
 479 677 479 677 480 660 c 0,21,22
 484 624 484 624 400 275 c 0,23,24
 391 244 391 244 383 201 c 0,25,26
 363 120 363 120 364 90 c 128,-1,27
 365 60 365 60 388 44 c 0,28,29
 400 38 400 38 406.5 40.5 c 128,-1,30
 413 43 413 43 435 61 c 0,31,32
 491 113 491 113 581 291 c 0,33,34
 674 477 674 477 700 619 c 0,35,36
 709 667 709 667 727 667 c 0,37,38
 753 667 753 667 742 623 c 0,39,40
 737 601 737 601 701.5 443 c 128,-1,41
 666 285 666 285 656 240 c 0,42,43
 629 117 629 117 623.5 81 c 128,-1,44
 618 45 618 45 628 37 c 0,45,46
 646 25 646 25 679.5 52.5 c 128,-1,47
 713 80 713 80 748 132 c 0,48,49
 790 193 790 193 802 163 c 0,50,51
 806 152 806 152 774.5 106 c 128,-1,52
 743 60 743 60 717 36 c 0,53,54
 639 -33 639 -33 598 17 c 0,55,56
 587 30 587 30 585.5 42.5 c 128,-1,57
 584 55 584 55 586 86 c 0,58,59
 590 134 590 134 609 216 c 128,-1,60
 628 298 628 298 628 304 c 1,61,-1
 612 273 l 2,62,63
 610 269 610 269 608 262 c 0,64,65
 558 155 558 155 506.5 84 c 128,-1,66
 455 13 455 13 415 4 c 0,67,68
 397 -1 397 -1 371.5 8.5 c 128,-1,69
 346 18 346 18 337 34 c 0,70,71
 314 77 314 77 358 266 c 0,72,73
 391 391 391 391 390 396 c 0,74,75
 390 397 390 397 384.5 386.5 c 128,-1,76
 379 376 379 376 368.5 356.5 c 128,-1,77
 358 337 358 337 346 316 c 0,78,79
 255 142 255 142 195.5 75.5 c 128,-1,80
 136 9 136 9 65 0 c 0,81,82
 45 -4 45 -4 34.5 -1.5 c 128,-1,83
 24 1 24 1 13 12 c 0,0,1
EndSplineSet
EndChar

StartChar: glyph
Encoding: 1084 1084 28
Width: 461
VWidth: 1028
GlyphClass: 2
Flags: W
LayerCount: 2
Fore
SplineSet
33 12 m 0,0,1
 18 24 18 24 7 80 c 128,-1,2
 -4 136 -4 136 5 148 c 0,3,4
 27 170 27 170 37 134 c 0,5,6
 39 122 39 122 39 105 c 0,7,8
 39 47 39 47 52 39 c 128,-1,9
 65 31 65 31 96 71 c 0,10,11
 129 113 129 113 172 190 c 128,-1,12
 215 267 215 267 220 297 c 0,13,14
 222 313 222 313 240 316 c 0,15,16
 252 317 252 317 255.5 314 c 128,-1,17
 259 311 259 311 253 297 c 0,18,19
 249 277 249 277 233.5 206.5 c 128,-1,20
 218 136 218 136 210 108 c 0,21,22
 206 90 206 90 204 74 c 128,-1,23
 202 58 202 58 204.5 47.5 c 128,-1,24
 207 37 207 37 213 37 c 0,25,26
 223 38 223 38 244 71 c 128,-1,27
 265 104 265 104 304 182 c 128,-1,28
 343 260 343 260 343 269 c 0,29,30
 343 284 343 284 354 301 c 128,-1,31
 365 318 365 318 374 318 c 0,32,33
 387 318 387 318 388.5 311.5 c 128,-1,34
 390 305 390 305 361 180 c 128,-1,35
 332 55 332 55 338 42 c 0,36,37
 342 32 342 32 345 31.5 c 128,-1,38
 348 31 348 31 358 43 c 0,39,40
 374 58 374 58 416 117 c 0,41,42
 436 148 436 148 450.5 161.5 c 128,-1,43
 465 175 465 175 471 173 c 0,44,45
 480 169 480 169 481 165 c 128,-1,46
 482 161 482 161 475 146 c 128,-1,47
 468 131 468 131 456.5 111.5 c 128,-1,48
 445 92 445 92 415 55 c 0,49,50
 382 11 382 11 350.5 3 c 128,-1,51
 319 -5 319 -5 304 28 c 0,52,53
 294 50 294 50 306.5 91 c 128,-1,54
 319 132 319 132 319 137.5 c 128,-1,55
 319 143 319 143 287 85 c 0,56,57
 216 -40 216 -40 174 21 c 0,58,59
 161 44 161 44 183 141 c 0,60,61
 185 150 185 150 177 134 c 0,62,63
 168 123 168 123 152 101 c 0,64,65
 112 35 112 35 84 13.5 c 128,-1,66
 56 -8 56 -8 33 12 c 0,0,1
EndSplineSet
EndChar

StartChar: glyph
Encoding: 1053 1053 29
Width: 665
VWidth: 1000
GlyphClass: 2
Flags: W
LayerCount: 2
Fore
SplineSet
53 13 m 0,0,1
 17 30 17 30 5 53 c 0,2,3
 -4 68 -4 68 -3 72 c 128,-1,4
 -2 76 -2 76 7 86 c 128,-1,5
 16 96 16 96 21.5 94.5 c 128,-1,6
 27 93 27 93 45 71 c 0,7,8
 88 23 88 23 140 42 c 0,9,10
 168 54 168 54 186.5 76.5 c 128,-1,11
 205 99 205 99 219.5 147.5 c 128,-1,12
 234 196 234 196 258 302 c 0,13,14
 319 590 319 590 327 613 c 2,15,-1
 329 622 l 1,16,17
 328 622 328 622 323 618 c 0,18,19
 312 608 312 608 276 608.5 c 128,-1,20
 240 609 240 609 220 621 c 0,21,22
 198 633 198 633 183 632 c 0,23,24
 172 632 172 632 157 618.5 c 128,-1,25
 142 605 142 605 142 597 c 256,26,27
 142 587 142 587 131.5 583 c 128,-1,28
 121 579 121 579 113 586 c 256,29,30
 103 591 103 591 108 611.5 c 128,-1,31
 113 632 113 632 128 648 c 0,32,33
 161 681 161 681 224 660 c 0,34,35
 262 648 262 648 282 648.5 c 128,-1,36
 302 649 302 649 340 660 c 256,37,38
 378 672 378 672 386 664 c 128,-1,39
 394 656 394 656 376 622 c 0,40,41
 365 602 365 602 346 529 c 128,-1,42
 327 456 327 456 319 402 c 2,43,-1
 314 372 l 1,44,-1
 419 374 l 1,45,-1
 524 376 l 1,46,-1
 532 407 l 2,47,48
 541 434 541 434 567 551 c 0,49,50
 584 627 584 627 591 647 c 128,-1,51
 598 667 598 667 609 668 c 0,52,53
 618 669 618 669 621 667 c 128,-1,54
 624 665 624 665 624.5 653 c 128,-1,55
 625 641 625 641 621.5 623 c 128,-1,56
 618 605 618 605 611 570 c 0,57,58
 596 504 596 504 579 435 c 256,59,60
 564 366 564 366 553 314 c 0,61,62
 510 119 510 119 504.5 81.5 c 128,-1,63
 499 44 499 44 515 37 c 0,64,65
 535 31 535 31 569 62 c 128,-1,66
 603 93 603 93 638 143 c 0,67,68
 649 158 649 158 657.5 166.5 c 128,-1,69
 666 175 666 175 673.5 175 c 128,-1,70
 681 175 681 175 683 163 c 0,71,72
 687 153 687 153 657.5 109.5 c 128,-1,73
 628 66 628 66 598 37 c 0,74,75
 548 -11 548 -11 505 -1 c 128,-1,76
 462 9 462 9 462 66 c 0,77,78
 462 99 462 99 514 318 c 0,79,80
 518 330 518 330 502 330 c 0,81,82
 489 332 489 332 410 332 c 2,83,-1
 304 332 l 1,84,-1
 281 224 l 2,85,86
 261 127 261 127 244.5 91.5 c 128,-1,87
 228 56 228 56 194 29 c 0,88,89
 124 -27 124 -27 53 13 c 0,0,1
EndSplineSet
EndChar

StartChar: glyph
Encoding: 1085 1085 30
Width: 387
VWidth: 1028
GlyphClass: 2
Flags: W
LayerCount: 2
Fore
SplineSet
78 15 m 0,0,1
 78 31 78 31 110 156 c 128,-1,2
 142 281 142 281 137 287 c 0,3,4
 133 291 133 291 123 283 c 128,-1,5
 113 275 113 275 98 256.5 c 128,-1,6
 83 238 83 238 64 211 c 0,7,8
 33 167 33 167 22.5 157.5 c 128,-1,9
 12 148 12 148 2 157 c 0,10,11
 -8 163 -8 163 -1.5 178.5 c 128,-1,12
 5 194 5 194 37 234 c 0,13,14
 98 319 98 319 135 319 c 0,15,16
 183 319 183 319 164 237 c 0,17,18
 154 193 154 193 156.5 190.5 c 128,-1,19
 159 188 159 188 205 185 c 0,20,21
 232 183 232 183 240.5 184.5 c 128,-1,22
 249 186 249 186 253 195 c 0,23,24
 257 207 257 207 271 262 c 0,25,26
 280 298 280 298 284 308.5 c 128,-1,27
 288 319 288 319 298 319 c 0,28,29
 310 319 310 319 311 305 c 0,30,31
 311 288 311 288 286 172 c 0,32,33
 259 52 259 52 265 44 c 0,34,35
 274 38 274 38 296 58 c 128,-1,36
 318 78 318 78 348 124 c 0,37,38
 386 178 386 178 391 179 c 128,-1,39
 396 180 396 180 405 169 c 0,40,41
 414 160 414 160 388 119 c 128,-1,42
 362 78 362 78 326 39 c 0,43,44
 299 11 299 11 271.5 6 c 128,-1,45
 244 1 244 1 232 22 c 0,46,47
 227 34 227 34 229 67.5 c 128,-1,48
 231 101 231 101 238 130 c 0,49,50
 242 142 242 142 235.5 145 c 128,-1,51
 229 148 229 148 193 148 c 2,52,-1
 142 148 l 1,53,-1
 128 91 l 2,54,55
 115 35 115 35 108 16 c 0,56,57
 104 5 104 5 97.5 0.5 c 128,-1,58
 91 -4 91 -4 84.5 0 c 128,-1,59
 78 4 78 4 78 15 c 0,0,1
EndSplineSet
EndChar

StartChar: glyph
Encoding: 1054 1054 31
Width: 378
VWidth: 1000
GlyphClass: 2
Flags: W
LayerCount: 2
Fore
SplineSet
98 13 m 0,0,1
 62 28 62 28 44 51.5 c 128,-1,2
 26 75 26 75 12 123 c 0,3,4
 2 159 2 159 0 182 c 128,-1,5
 -2 205 -2 205 1 260 c 0,6,7
 5 337 5 337 19 391.5 c 128,-1,8
 33 446 33 446 61 510 c 256,9,10
 92 575 92 575 125 609.5 c 128,-1,11
 158 644 158 644 199 656 c 0,12,13
 265 676 265 676 305.5 662 c 128,-1,14
 346 648 346 648 372 597 c 0,15,16
 415 510 415 510 407 375 c 128,-1,17
 399 240 399 240 345 130 c 0,18,19
 297 33 297 33 218 9 c 0,20,21
 179 -3 179 -3 154 -1.5 c 128,-1,22
 129 0 129 0 98 13 c 0,0,1
240 61 m 256,23,24
 282 84 282 84 309.5 140 c 128,-1,25
 337 196 337 196 356.5 293 c 128,-1,26
 376 390 376 390 367 473 c 128,-1,27
 358 556 358 556 324 595 c 0,28,29
 291 633 291 633 242.5 627 c 128,-1,30
 194 621 194 621 146 574 c 0,31,32
 119 547 119 547 100.5 511 c 128,-1,33
 82 475 82 475 61 400 c 0,34,35
 30 302 30 302 39 200.5 c 128,-1,36
 48 99 48 99 86 64 c 0,37,38
 113 39 113 39 155.5 38.5 c 128,-1,39
 198 38 198 38 240 61 c 256,23,24
EndSplineSet
EndChar

StartChar: glyph
Encoding: 1086 1086 32
Width: 221
VWidth: 1028
GlyphClass: 2
Flags: W
LayerCount: 2
Fore
SplineSet
55 7 m 0,0,1
 -6 34 -6 34 6 156 c 0,2,3
 10 195 10 195 30 238.5 c 128,-1,4
 50 282 50 282 66 297 c 0,5,6
 99 320 99 320 142 316.5 c 128,-1,7
 185 313 185 313 202 287 c 0,8,9
 217 265 217 265 220 219 c 128,-1,10
 223 173 223 173 210 129 c 0,11,12
 198 81 198 81 183 56.5 c 128,-1,13
 168 32 168 32 145 15 c 0,14,15
 105 -13 105 -13 55 7 c 0,0,1
136 59 m 0,16,17
 164 87 164 87 177.5 155.5 c 128,-1,18
 191 224 191 224 172 258 c 0,19,20
 156 291 156 291 128.5 286 c 128,-1,21
 101 281 101 281 76 240 c 0,22,23
 45 192 45 192 40.5 134 c 128,-1,24
 36 76 36 76 59 49 c 0,25,26
 71 34 71 34 94.5 37.5 c 128,-1,27
 118 41 118 41 136 59 c 0,16,17
EndSplineSet
EndChar

StartChar: glyph
Encoding: 1055 1055 33
Width: 645
VWidth: 1000
GlyphClass: 2
Flags: W
LayerCount: 2
Fore
SplineSet
87 0 m 0,0,1
 49 9 49 9 22.5 33.5 c 128,-1,2
 -4 58 -4 58 4 76 c 0,3,4
 8 87 8 87 17.5 87 c 128,-1,5
 27 87 27 87 33 76 c 0,6,7
 37 63 37 63 64 47.5 c 128,-1,8
 91 32 91 32 110 32 c 0,9,10
 132 32 132 32 161.5 52 c 128,-1,11
 191 72 191 72 208 99 c 256,12,13
 224 125 224 125 235 174.5 c 128,-1,14
 246 224 246 224 253 256 c 0,15,16
 264 317 264 317 283 379 c 0,17,18
 294 419 294 419 305 471 c 0,19,20
 317 523 317 523 334.5 562.5 c 128,-1,21
 352 602 352 602 362 602 c 0,22,23
 374 602 374 602 374 593 c 128,-1,24
 374 584 374 584 365 563 c 0,25,26
 350 530 350 530 326 446 c 128,-1,27
 302 362 302 362 291 303 c 0,28,29
 279 236 279 236 255.5 161 c 128,-1,30
 232 86 232 86 218 64 c 0,31,32
 195 28 195 28 159 11 c 128,-1,33
 123 -6 123 -6 87 0 c 0,0,1
476 2 m 0,34,35
 456 11 456 11 448 36 c 0,36,37
 439 63 439 63 449 98 c 0,38,39
 561 601 561 601 579 602 c 0,40,41
 583 602 583 602 587 600 c 0,42,43
 589 598 589 598 589 589 c 0,44,45
 589 580 589 580 586 570 c 0,46,47
 582 558 582 558 578 538 c 0,48,49
 565 488 565 488 546 415 c 0,50,51
 528 343 528 343 524 314 c 0,52,53
 522 294 522 294 518 282 c 0,54,55
 512 262 512 262 492 181 c 0,56,57
 474 99 474 99 471 80 c 0,58,59
 470 47 470 47 475 39 c 0,60,61
 479 33 479 33 494 32 c 0,62,63
 514 32 514 32 563 82 c 4,64,65
 627 143 627 143 633 152 c 0,66,67
 639 164 639 164 650 166 c 0,68,69
 690 165 690 165 595 69 c 0,70,71
 590 64 590 64 581 55 c 0,72,73
 543 17 543 17 521 6 c 0,74,75
 498 -7 498 -7 476 2 c 0,34,35
140 428 m 0,76,77
 129 455 129 455 129 502 c 128,-1,78
 129 549 129 549 140 576 c 0,79,80
 152 603 152 603 168.5 619 c 128,-1,81
 185 635 185 635 217 651 c 0,82,83
 244 663 244 663 286.5 665.5 c 128,-1,84
 329 668 329 668 527 665 c 0,85,86
 659 664 659 664 666 656 c 0,87,88
 667 655 667 655 666 650 c 0,89,90
 664 635 664 635 615.5 630 c 128,-1,91
 567 625 567 625 440 628 c 0,92,93
 311 632 311 632 263.5 624.5 c 128,-1,94
 216 617 216 617 190 587 c 0,95,96
 163 554 163 554 157 512.5 c 128,-1,97
 151 471 151 471 172 439 c 0,98,99
 178 428 178 428 175 413.5 c 128,-1,100
 172 399 172 399 161 399 c 0,101,102
 152 401 152 401 140 428 c 0,76,77
EndSplineSet
EndChar

StartChar: glyph
Encoding: 1087 1087 34
Width: 399
VWidth: 1028
GlyphClass: 2
Flags: W
LayerCount: 2
Fore
SplineSet
81 14.5 m 128,-1,1
 85 28 85 28 105 115 c 0,2,3
 125 197 125 197 136 238 c 0,4,5
 146 276 146 276 140 281 c 0,6,7
 130 291 130 291 110.5 277.5 c 128,-1,8
 91 264 91 264 72 238 c 0,9,10
 63 226 63 226 47 203.5 c 128,-1,11
 31 181 31 181 27 177 c 0,12,13
 25 173 25 173 21.5 165 c 128,-1,14
 18 157 18 157 15 152.5 c 128,-1,15
 12 148 12 148 6 148 c 0,16,17
 -21 152 -21 152 33 224 c 0,18,19
 72 278 72 278 92 297 c 128,-1,20
 112 316 112 316 129 316 c 0,21,22
 147 316 147 316 154.5 306.5 c 128,-1,23
 162 297 162 297 164 273 c 0,24,25
 165 261 165 261 177 260 c 1,26,27
 187 266 187 266 197.5 279 c 128,-1,28
 208 292 208 292 216 298.5 c 128,-1,29
 224 305 224 305 240 309 c 0,30,31
 273 319 273 319 285.5 308 c 128,-1,32
 298 297 298 297 293 293 c 128,-1,33
 288 289 288 289 296 281 c 128,-1,34
 304 273 304 273 292 216 c 0,35,36
 269 92 269 92 266.5 69.5 c 128,-1,37
 264 47 264 47 271 39 c 0,38,39
 281 29 281 29 299 39 c 0,40,41
 312 48 312 48 353 100.5 c 128,-1,42
 394 153 394 153 394 164 c 0,43,44
 394 170 394 170 400.5 171 c 128,-1,45
 407 172 407 172 413 164 c 0,46,47
 418 153 418 153 393.5 114 c 128,-1,48
 369 75 369 75 326 26 c 0,49,50
 308 6 308 6 286 1 c 128,-1,51
 264 -4 264 -4 249 10 c 0,52,53
 239 20 239 20 235.5 45.5 c 128,-1,54
 232 71 232 71 240 102 c 0,55,56
 252 142 252 142 262.5 200 c 128,-1,57
 273 258 273 258 272 266 c 0,58,59
 259 302 259 302 206 250 c 0,60,61
 168 210 168 210 152.5 169 c 128,-1,62
 137 128 137 128 117 21 c 0,63,64
 116 12 116 12 106 6.5 c 128,-1,65
 96 1 96 1 90 1 c 0,66,0
 77 1 77 1 81 14.5 c 128,-1,1
EndSplineSet
EndChar

StartChar: glyph
Encoding: 1056 1056 35
Width: 338
VWidth: 1000
GlyphClass: 2
Flags: W
LayerCount: 2
Fore
SplineSet
54 9 m 0,0,1
 29 20 29 20 15 37.5 c 128,-1,2
 1 55 1 55 1 71 c 256,3,4
 1 87 1 87 11.5 90 c 128,-1,5
 22 93 22 93 27 75 c 0,6,7
 31 63 31 63 56.5 49.5 c 128,-1,8
 82 36 82 36 105 36 c 0,9,10
 141 36 141 36 176 72.5 c 128,-1,11
 211 109 211 109 224 156 c 0,12,13
 244 231 244 231 250 266 c 0,14,15
 252 281 252 281 257 289.5 c 128,-1,16
 262 298 262 298 272 342 c 0,17,18
 292 447 292 447 317.5 524.5 c 128,-1,19
 343 602 343 602 357 602 c 0,20,21
 363 602 363 602 364 588 c 128,-1,22
 365 574 365 574 358 565 c 0,23,24
 349 556 349 556 331 492 c 128,-1,25
 313 428 313 428 297 346 c 0,26,27
 260 174 260 174 241.5 123 c 128,-1,28
 223 72 223 72 189 37 c 0,29,30
 125 -22 125 -22 54 9 c 0,0,1
86 320 m 1,31,32
 47 346 47 346 33.5 375.5 c 128,-1,33
 20 405 20 405 25 448 c 0,34,35
 25 457 25 457 26 463.5 c 128,-1,36
 27 470 27 470 27.5 475 c 128,-1,37
 28 480 28 480 32 486.5 c 128,-1,38
 36 493 36 493 36.5 495.5 c 128,-1,39
 37 498 37 498 40.5 504.5 c 128,-1,40
 44 511 44 511 46 513.5 c 128,-1,41
 48 516 48 516 53.5 524 c 128,-1,42
 59 532 59 532 61 535 c 0,43,44
 98 589 98 589 172 635 c 0,45,46
 208 657 208 657 287.5 664 c 128,-1,47
 367 671 367 671 413 656 c 0,48,49
 446 650 446 650 474 626 c 128,-1,50
 502 602 502 602 516 574 c 0,51,52
 528 551 528 551 530 505 c 0,53,54
 531 434 531 434 493 384 c 128,-1,55
 455 334 455 334 390 320 c 0,56,57
 375 316 375 316 368.5 318 c 128,-1,58
 362 320 362 320 358 330 c 0,59,60
 353 341 353 341 355.5 344.5 c 128,-1,61
 358 348 358 348 376 353 c 1,62,63
 398 347 398 347 443 375 c 0,64,65
 470 391 470 391 492 437 c 0,66,67
 504 457 504 457 503 506 c 0,68,69
 504 543 504 543 492 563.5 c 128,-1,70
 480 584 480 584 445 613 c 0,71,72
 440 617 440 617 434.5 619 c 128,-1,73
 429 621 429 621 422.5 624 c 128,-1,74
 416 627 416 627 413 627.5 c 128,-1,75
 410 628 410 628 400.5 628 c 128,-1,76
 391 628 391 628 387 628.5 c 128,-1,77
 383 629 383 629 367.5 629.5 c 128,-1,78
 352 630 352 630 343 630 c 0,79,80
 279 632 279 632 237 622.5 c 128,-1,81
 195 613 195 613 153 584 c 0,82,83
 48 512 48 512 53 429 c 0,84,85
 54 381 54 381 86.5 361.5 c 128,-1,86
 119 342 119 342 162 362 c 0,87,88
 190 375 190 375 195.5 375 c 128,-1,89
 201 375 201 375 201 361 c 0,90,91
 201 339 201 339 159 323.5 c 128,-1,92
 117 308 117 308 86 320 c 1,31,32
EndSplineSet
EndChar

StartChar: glyph
Encoding: 1088 1088 36
Width: 372
VWidth: 1054
GlyphClass: 2
Flags: W
LayerCount: 2
Fore
SplineSet
-29 -326 m 4,0,1
 -29 -310 -29 -310 2 -183 c 132,-1,2
 33 -56 33 -56 37.5 -37 c 132,-1,3
 42 -18 42 -18 61 53 c 4,4,5
 116 254 116 254 105 262 c 4,6,7
 100 266 100 266 75 231 c 4,8,9
 62 211 62 211 33 169 c 4,10,11
 6 126 6 126 -4 139 c 4,12,13
 -6 143 -6 143 -6 148 c 4,14,15
 -6 158 -6 158 30 214 c 132,-1,16
 66 270 66 270 93 299 c 4,17,18
 102 309 102 309 115 313.5 c 132,-1,19
 128 318 128 318 138 316 c 132,-1,20
 148 314 148 314 148 304 c 4,21,22
 148 292 148 292 139 276 c 4,23,24
 127 256 127 256 139 255 c 4,25,26
 148 256 148 256 163 272 c 4,27,28
 224 339 224 339 262 303 c 4,29,30
 278 283 278 283 274.5 235.5 c 132,-1,31
 271 188 271 188 240 97 c 4,32,33
 223 38 223 38 245 42 c 4,34,35
 256 43 256 43 276 61 c 4,36,37
 301 86 301 86 337 139 c 4,38,39
 373 187 373 187 381 173 c 4,40,41
 383 169 383 169 384 163 c 4,42,43
 384 151 384 151 359.5 113.5 c 132,-1,44
 335 76 335 76 307 47 c 4,45,46
 280 19 280 19 260 10.5 c 132,-1,47
 240 2 240 2 223 15 c 4,48,49
 205 27 205 27 205.5 53.5 c 132,-1,50
 206 80 206 80 228 155 c 4,51,52
 261 269 261 269 243 281 c 4,53,54
 220 294 220 294 161 224 c 6,55,-1
 119 174 l 5,56,-1
 66 -44 l 6,57,58
 14 -261 14 -261 4 -297 c 4,59,60
 -6 -337 -6 -337 -20 -343 c 4,61,62
 -25 -345 -25 -345 -28 -336 c 4,63,64
 -29 -331 -29 -331 -29 -326 c 4,0,1
EndSplineSet
EndChar

StartChar: glyph
Encoding: 1057 1057 37
Width: 358
VWidth: 1001
GlyphClass: 2
Flags: W
LayerCount: 2
Fore
SplineSet
83 11 m 0,0,1
 35 36 35 36 13 96 c 128,-1,2
 -9 156 -9 156 -2 242 c 0,3,4
 4 340 4 340 43.5 432 c 128,-1,5
 83 524 83 524 145 581 c 0,6,7
 184 620 184 620 197.5 630 c 128,-1,8
 211 640 211 640 240 650 c 0,9,10
 295 668 295 668 342 649 c 0,11,12
 386 631 386 631 389 567 c 128,-1,13
 392 503 392 503 351 448 c 0,14,15
 320 406 320 406 277 400 c 0,16,17
 246 396 246 396 246 418 c 0,18,19
 246 431 246 431 277 443 c 0,20,21
 310 452 310 452 332 488.5 c 128,-1,22
 354 525 354 525 353 564 c 128,-1,23
 352 603 352 603 326 614 c 0,24,25
 304 625 304 625 281.5 622 c 128,-1,26
 259 619 259 619 224 602 c 0,27,28
 174 575 174 575 132.5 515 c 128,-1,29
 91 455 91 455 59 373 c 0,30,31
 36 308 36 308 31 227 c 0,32,33
 30 185 30 185 33.5 158.5 c 128,-1,34
 37 132 37 132 40 123 c 128,-1,35
 43 114 43 114 55 93 c 0,36,37
 73 60 73 60 106.5 41 c 128,-1,38
 140 22 140 22 174 29 c 0,39,40
 217 34 217 34 254 61 c 128,-1,41
 291 88 291 88 335 142 c 0,42,43
 348 160 348 160 355 164.5 c 128,-1,44
 362 169 362 169 368 162.5 c 128,-1,45
 374 156 374 156 373.5 149.5 c 128,-1,46
 373 143 373 143 365 128 c 0,47,48
 350 100 350 100 313 63.5 c 128,-1,49
 276 27 276 27 249 13 c 0,50,51
 213 -3 213 -3 161.5 -3.5 c 128,-1,52
 110 -4 110 -4 83 11 c 0,0,1
EndSplineSet
EndChar

StartChar: glyph
Encoding: 1089 1089 38
Width: 234
VWidth: 1028
GlyphClass: 2
Flags: W
LayerCount: 2
Fore
SplineSet
43 13 m 4,0,1
 -5 41 -5 41 4 136 c 4,2,3
 14 245 14 245 75 299 c 4,4,5
 127 344 127 344 172 308 c 4,6,7
 188 295 188 295 201 270 c 4,8,9
 213 244 213 244 208 235 c 4,10,11
 202 223 202 223 188.5 229 c 132,-1,12
 175 235 175 235 166 254 c 4,13,14
 149 291 149 291 117 281 c 132,-1,15
 85 271 85 271 64 222 c 4,16,17
 37 163 37 163 38 108 c 132,-1,18
 39 53 39 53 69 39 c 4,19,20
 95 27 95 27 124 49.5 c 132,-1,21
 153 72 153 72 194 130 c 4,22,23
 219 167 219 167 226 173.5 c 132,-1,24
 233 180 233 180 246 174 c 4,25,26
 252 170 252 170 252.5 164 c 132,-1,27
 253 158 253 158 242 140 c 4,28,29
 216 96 216 96 186 60.5 c 132,-1,30
 156 25 156 25 135 15 c 4,31,32
 107 0 107 0 86.5 0 c 132,-1,33
 66 0 66 0 43 13 c 4,0,1
EndSplineSet
EndChar

StartChar: glyph
Encoding: 1058 1058 39
Width: 770
VWidth: 1000
GlyphClass: 2
Flags: W
LayerCount: 2
Fore
SplineSet
61 6 m 256,0,1
 34 16 34 16 21.5 26.5 c 128,-1,2
 9 37 9 37 -2 58 c 0,3,4
 -8 70 -8 70 -9 76 c 128,-1,5
 -10 82 -10 82 -2 87 c 256,6,7
 4 92 4 92 12 89 c 128,-1,8
 20 86 20 86 36 69 c 0,9,10
 54 49 54 49 69.5 43 c 128,-1,11
 85 37 85 37 110 40 c 0,12,13
 128 41 128 41 157 63.5 c 128,-1,14
 186 86 186 86 196 109 c 0,15,16
 208 136 208 136 250 313 c 0,17,18
 272 411 272 411 287 463.5 c 128,-1,19
 302 516 302 516 313.5 548.5 c 128,-1,20
 325 581 325 581 334 591 c 128,-1,21
 343 601 343 601 354 601 c 256,22,23
 366 601 366 601 369 588.5 c 128,-1,24
 372 576 372 576 362 565 c 0,25,26
 345 547 345 547 282 285 c 0,27,28
 239 110 239 110 228 88 c 0,29,30
 216 66 216 66 188.5 41.5 c 128,-1,31
 161 17 161 17 137 6 c 0,32,33
 111 -5 111 -5 99.5 -4.5 c 128,-1,34
 88 -4 88 -4 61 6 c 256,0,1
602 4 m 0,35,36
 574 16 574 16 571.5 49.5 c 128,-1,37
 569 83 569 83 591 189 c 0,38,39
 614 292 614 292 629 360.5 c 128,-1,40
 644 429 644 429 647.5 441 c 128,-1,41
 651 453 651 453 667 526 c 0,42,43
 678 571 678 571 683.5 586 c 128,-1,44
 689 601 689 601 698 601 c 0,45,46
 711 601 711 601 715.5 595 c 128,-1,47
 720 589 720 589 690 459.5 c 128,-1,48
 660 330 660 330 657.5 310.5 c 128,-1,49
 655 291 655 291 650 279 c 128,-1,50
 645 267 645 267 621 161 c 0,51,52
 606 91 606 91 604 70.5 c 128,-1,53
 602 50 602 50 609.5 43 c 128,-1,54
 617 36 617 36 623.5 36.5 c 128,-1,55
 630 37 630 37 651 53 c 0,56,57
 679 73 679 73 720 123 c 0,58,59
 764 179 764 179 781 173 c 0,60,61
 793 168 793 168 760 117 c 0,62,63
 742 91 742 91 698.5 47.5 c 128,-1,64
 655 4 655 4 648 4 c 256,65,66
 639 4 639 4 628.5 1 c 128,-1,67
 618 -2 618 -2 602 4 c 0,35,36
369 9 m 128,-1,69
 369 16 369 16 396 130 c 0,70,71
 423 244 423 244 461 416 c 0,72,73
 500 588 500 588 504 594.5 c 128,-1,74
 508 601 508 601 519.5 601 c 128,-1,75
 531 601 531 601 533 595 c 0,76,77
 537 589 537 589 484 356 c 0,78,79
 480 336 480 336 471 298 c 0,80,81
 421 80 421 80 410.5 43 c 128,-1,82
 400 6 400 6 390 5 c 0,83,84
 388 5 388 5 385 5 c 0,85,68
 369 2 369 2 369 9 c 128,-1,69
128 424 m 0,86,87
 116 447 116 447 117 503 c 0,88,89
 117 556 117 556 132 587 c 128,-1,90
 147 618 147 618 189 643 c 2,91,-1
 224 665 l 1,92,-1
 502 665 l 2,93,94
 683 665 683 665 731.5 662.5 c 128,-1,95
 780 660 780 660 781 651 c 0,96,97
 783 639 783 639 770 633.5 c 128,-1,98
 757 628 757 628 503 626.5 c 128,-1,99
 249 625 249 625 232 618 c 0,100,101
 205 606 205 606 183.5 584.5 c 128,-1,102
 162 563 162 563 152 536 c 0,103,104
 147 514 147 514 147.5 500.5 c 128,-1,105
 148 487 148 487 158 464 c 0,106,107
 170 424 170 424 167 412 c 0,108,109
 162 400 162 400 149.5 403.5 c 128,-1,110
 137 407 137 407 128 424 c 0,86,87
EndSplineSet
EndChar

StartChar: glyph
Encoding: 1090 1090 40
Width: 531
VWidth: 1028
GlyphClass: 2
Flags: W
LayerCount: 2
Fore
SplineSet
83.5 3.5 m 128,-1,1
 80 7 80 7 113.5 143.5 c 128,-1,2
 147 280 147 280 142 287 c 0,3,4
 130 307 130 307 69 213 c 0,5,6
 26 149 26 149 12 151 c 0,7,8
 -15 151 -15 151 18 201 c 0,9,10
 30 219 30 219 52 250 c 0,11,12
 89 298 89 298 99 305 c 0,13,14
 132 325 132 325 156 315 c 128,-1,15
 180 305 180 305 175 277 c 0,16,17
 171 254 171 254 178 254 c 0,18,19
 184 255 184 255 201 277 c 0,20,21
 216 300 216 300 244 310.5 c 128,-1,22
 272 321 272 321 287 313 c 0,23,24
 303 302 303 302 301.5 273.5 c 128,-1,25
 300 245 300 245 305 245 c 128,-1,26
 310 245 310 245 330 273 c 0,27,28
 363 316 363 316 406 316 c 0,29,30
 419 316 419 316 427 302.5 c 128,-1,31
 435 289 435 289 434 261.5 c 128,-1,32
 433 234 433 234 424.5 190 c 128,-1,33
 416 146 416 146 400 85 c 0,34,35
 388 37 388 37 410 39 c 0,36,37
 437 43 437 43 489 121 c 0,38,39
 493 127 493 127 500 136 c 0,40,41
 537 192 537 192 548 164 c 0,42,43
 552 153 552 153 515 100.5 c 128,-1,44
 478 48 478 48 451 23 c 0,45,46
 425 0 425 0 404 1 c 128,-1,47
 383 2 383 2 369 23 c 0,48,49
 363 35 363 35 365 56 c 128,-1,50
 367 77 367 77 384 148 c 0,51,52
 409 252 409 252 408 269 c 0,53,54
 406 305 406 305 358 255 c 0,55,56
 297 190 297 190 267 74 c 0,57,58
 256 30 256 30 249.5 15 c 128,-1,59
 243 0 243 0 233 0 c 0,60,61
 221 0 221 0 220.5 9 c 128,-1,62
 220 18 220 18 231 59 c 0,63,64
 246 115 246 115 260.5 182.5 c 128,-1,65
 275 250 275 250 275 265 c 0,66,67
 275 305 275 305 224 260 c 0,68,69
 197 235 197 235 171 190 c 128,-1,70
 145 145 145 145 135 102 c 0,71,72
 112 1 112 1 98 0 c 0,73,0
 87 0 87 0 83.5 3.5 c 128,-1,1
EndSplineSet
EndChar

StartChar: glyph
Encoding: 1059 1059 41
Width: 404
VWidth: 1000
GlyphClass: 2
Flags: W
LayerCount: 2
Fore
SplineSet
137 2 m 0,0,1
 78 14 78 14 42 58 c 0,2,3
 -3 111 -3 111 17 125 c 0,4,5
 29 134 29 134 36 129.5 c 128,-1,6
 43 125 43 125 61 98 c 0,7,8
 104 37 104 37 172 37 c 0,9,10
 231 38 231 38 272 85 c 0,11,12
 299 112 299 112 311.5 139 c 128,-1,13
 324 166 324 166 337 222 c 0,14,15
 353 297 353 297 358 316 c 0,16,17
 362 326 362 326 359 327 c 0,18,19
 355 327 355 327 327 300 c 0,20,21
 229 214 229 214 148 270 c 0,22,23
 115 293 115 293 113.5 329 c 128,-1,24
 112 365 112 365 135 461 c 0,25,26
 161 570 161 570 158 589 c 0,27,28
 146 633 146 633 107 632 c 0,29,30
 57 632 57 632 20 573 c 0,31,32
 4 547 4 547 0 518 c 128,-1,33
 -4 489 -4 489 2 432 c 0,34,35
 4 414 4 414 -11 411 c 0,36,37
 -22 410 -22 410 -25 416 c 128,-1,38
 -28 422 -28 422 -31 439 c 0,39,40
 -47 537 -47 537 -9 599.5 c 128,-1,41
 29 662 29 662 105 665 c 0,42,43
 130 666 130 666 141.5 663 c 128,-1,44
 153 660 153 660 166 649 c 0,45,46
 189 626 189 626 191 587 c 128,-1,47
 193 548 193 548 172 461 c 0,48,49
 152 374 152 374 149.5 350 c 128,-1,50
 147 326 147 326 162 308 c 0,51,52
 177 288 177 288 213.5 290 c 128,-1,53
 250 292 250 292 287 314 c 0,54,55
 315 334 315 334 344.5 376 c 128,-1,56
 374 418 374 418 390 459 c 0,57,58
 402 496 402 496 417.5 564.5 c 128,-1,59
 433 633 433 633 433 648 c 0,60,61
 433 660 433 660 445 666 c 128,-1,62
 457 672 457 672 466 665 c 0,63,64
 470 660 470 660 462 615 c 128,-1,65
 454 570 454 570 416 413 c 0,66,67
 396 321 396 321 392 302 c 0,68,69
 382 254 382 254 362 183.5 c 128,-1,70
 342 113 342 113 332 98 c 0,71,72
 296 39 296 39 244.5 14.5 c 128,-1,73
 193 -10 193 -10 137 2 c 0,0,1
EndSplineSet
EndChar

StartChar: glyph
Encoding: 1091 1091 42
Width: 374
VWidth: 1171
GlyphClass: 2
Flags: W
LayerCount: 2
Fore
SplineSet
69 -343 m 4,0,1
 33 -331 33 -331 36 -273 c 4,2,3
 36 -230 36 -230 67 -181 c 132,-1,4
 98 -132 98 -132 188 -40 c 4,5,6
 211 -17 211 -17 221.5 -0.5 c 132,-1,7
 232 16 232 16 235 40 c 4,8,9
 247 90 247 90 243 87 c 4,10,11
 241 88 241 88 232 72 c 4,12,13
 219 50 219 50 189 25 c 4,14,15
 130 -27 130 -27 107 31 c 4,16,17
 102 44 102 44 107 76 c 132,-1,18
 112 108 112 108 136 223 c 4,19,20
 147 271 147 271 142 278 c 4,21,22
 140 282 140 282 132.5 278.5 c 132,-1,23
 125 275 125 275 115 264 c 132,-1,24
 105 253 105 253 91.5 237 c 132,-1,25
 78 221 78 221 61 196 c 4,26,27
 9 127 9 127 0 151 c 4,28,29
 -1 153 -1 153 -1 156 c 4,30,31
 -3 169 -3 169 47 233 c 132,-1,32
 97 297 97 297 117 307 c 4,33,34
 140 319 140 319 158.5 314 c 132,-1,35
 177 309 177 309 180 292 c 260,36,37
 184 275 184 275 159 164 c 4,38,39
 131 38 131 38 147 36 c 4,40,41
 151 35 151 35 158 40 c 4,42,43
 185 57 185 57 226 125.5 c 132,-1,44
 267 194 267 194 282 253 c 4,45,46
 297 314 297 314 309 316 c 4,47,48
 315 316 315 316 319 310 c 132,-1,49
 323 304 323 304 321.5 288 c 132,-1,50
 320 272 320 272 315.5 246.5 c 132,-1,51
 311 221 311 221 302 175 c 4,52,53
 277 70 277 70 277 57 c 132,-1,54
 277 44 277 44 304 83 c 4,55,56
 304 84 304 84 305 86 c 4,57,58
 342 139 342 139 357 155.5 c 132,-1,59
 372 172 372 172 383 167 c 4,60,61
 395 163 395 163 393 153 c 132,-1,62
 391 143 391 143 372 121 c 4,63,64
 352 94 352 94 303 29 c 6,65,-1
 255 -36 l 5,66,-1
 229 -152 l 6,67,68
 204 -269 204 -269 186 -298 c 4,69,70
 166 -334 166 -334 134 -344.5 c 132,-1,71
 102 -355 102 -355 69 -343 c 4,0,1
139 -293 m 4,72,73
 165 -267 165 -267 171 -248 c 132,-1,74
 177 -229 177 -229 196.5 -147.5 c 132,-1,75
 216 -66 216 -66 213.5 -64.5 c 132,-1,76
 211 -63 211 -63 183.5 -93.5 c 132,-1,77
 156 -124 156 -124 127 -160.5 c 132,-1,78
 98 -197 98 -197 91 -211 c 4,79,80
 75 -238 75 -238 73 -268 c 132,-1,81
 71 -298 71 -298 86 -308 c 4,82,83
 101 -320 101 -320 110 -317.5 c 132,-1,84
 119 -315 119 -315 139 -293 c 4,72,73
EndSplineSet
EndChar

StartChar: glyph
Encoding: 1060 1060 43
Width: 674
VWidth: 1028
GlyphClass: 2
Flags: W
LayerCount: 2
Fore
SplineSet
65 -285 m 0,0,1
 38 -273 38 -273 20 -255 c 128,-1,2
 2 -237 2 -237 2 -221 c 0,3,4
 2 -198 2 -198 25 -206 c 0,5,6
 37 -210 37 -210 48 -227 c 0,7,8
 79 -266 79 -266 126 -254 c 0,9,10
 178 -242 178 -242 205 -190 c 0,11,12
 234 -129 234 -129 244 -88 c 0,13,14
 275 41 275 41 277 40 c 0,15,16
 278 46 278 46 281 54 c 0,17,18
 283 59 283 59 282 61 c 0,19,20
 282 65 282 65 281 67 c 0,21,22
 279 67 279 67 248 50 c 0,23,24
 200 22 200 22 146 25 c 0,25,26
 91 29 91 29 59 61 c 0,27,28
 11 114 11 114 12 235 c 0,29,30
 12 353 12 353 61 444 c 0,31,32
 90 499 90 499 150 537 c 0,33,34
 209 577 209 577 260 575 c 0,35,36
 287 574 287 574 316 565 c 0,37,38
 347 555 347 555 359 542 c 0,39,40
 377 525 377 525 380 529 c 0,41,42
 384 535 384 535 399 587 c 2,43,-1
 413 641 l 1,44,-1
 367 641 l 2,45,46
 319 641 319 641 287 649 c 0,47,48
 262 653 262 653 253 651 c 0,49,50
 244 649 244 649 231 630 c 0,51,52
 211 604 211 604 195 612 c 256,53,54
 182 617 182 617 185 628 c 0,55,56
 187 640 187 640 208 665 c 0,57,58
 226 685 226 685 238 692 c 0,59,60
 251 697 251 697 272 697 c 0,61,62
 309 696 309 696 318 686 c 256,63,64
 328 676 328 676 367 677 c 0,65,66
 405 678 405 678 428 689 c 0,67,68
 457 701 457 701 468 692 c 0,69,70
 474 687 474 687 476 683 c 0,71,72
 476 678 476 678 468 661 c 0,73,74
 459 646 459 646 441.5 591.5 c 128,-1,75
 424 537 424 537 424 527 c 0,76,77
 424 521 424 521 446 540 c 0,78,79
 468 560 468 560 492 564 c 0,80,81
 525 570 525 570 569.5 565 c 128,-1,82
 614 560 614 560 630 548 c 0,83,84
 669 520 669 520 683 450 c 0,85,86
 698 380 698 380 684 295 c 128,-1,87
 670 210 670 210 632 140 c 0,88,89
 588 58 588 58 503 29 c 0,90,91
 465 17 465 17 424 25 c 0,92,93
 384 30 384 30 354 53 c 0,94,95
 331 69 331 69 327 64 c 0,96,97
 323 60 323 60 291 -72 c 0,98,99
 274 -142 274 -142 245 -200 c 0,100,101
 218 -258 218 -258 156 -285 c 0,102,103
 129 -297 129 -297 110 -298 c 0,104,105
 92 -297 92 -297 65 -285 c 0,0,1
208 71 m 0,106,107
 246 84 246 84 273 110 c 0,108,109
 289 125 289 125 296.5 140.5 c 128,-1,110
 304 156 304 156 311 196 c 0,111,112
 323 257 323 257 345 362 c 0,113,114
 362 447 362 447 358 473.5 c 128,-1,115
 354 500 354 500 323 518 c 0,116,117
 303 530 303 530 262.5 528.5 c 128,-1,118
 222 527 222 527 195 518 c 0,119,120
 130 491 130 491 90 409 c 128,-1,121
 50 327 50 327 50 227 c 0,122,123
 51 162 51 162 66 125 c 128,-1,124
 81 88 81 88 117 70 c 0,125,126
 139 58 139 58 155.5 58.5 c 128,-1,127
 172 59 172 59 208 71 c 0,106,107
520 76 m 0,128,129
 553 92 553 92 582 135 c 128,-1,130
 611 178 611 178 630 232 c 0,131,132
 647 284 647 284 648.5 362.5 c 128,-1,133
 650 441 650 441 634 475 c 0,134,135
 616 514 616 514 570.5 525 c 128,-1,136
 525 536 525 536 476 513 c 0,137,138
 475 513 475 513 471 511 c 0,139,140
 428 491 428 491 412.5 449.5 c 128,-1,141
 397 408 397 408 348 175 c 0,142,143
 344 160 344 160 342 150 c 0,144,145
 332 105 332 105 390 74 c 0,146,147
 454 43 454 43 520 76 c 0,128,129
EndSplineSet
EndChar

StartChar: glyph
Encoding: 1092 1092 44
Width: 381
VWidth: 1027
GlyphClass: 2
Flags: W
LayerCount: 2
Fore
SplineSet
61 -341 m 0,0,1
 55 -337 55 -337 60.5 -306 c 128,-1,2
 66 -275 66 -275 87 -178 c 0,3,4
 125 -20 125 -20 131 1 c 2,5,-1
 137 21 l 1,6,-1
 117 10 l 2,7,8
 59 -21 59 -21 23.5 17 c 128,-1,9
 -12 55 -12 55 -4 142 c 0,10,11
 0 203 0 203 24 246 c 128,-1,12
 48 289 48 289 86 305 c 0,13,14
 117 317 117 317 136.5 316 c 128,-1,15
 156 315 156 315 174 302 c 2,16,-1
 193 283 l 1,17,-1
 199 304 l 2,18,19
 219 385 219 385 246 509.5 c 128,-1,20
 273 634 273 634 273 643 c 0,21,22
 273 658 273 658 288 665.5 c 128,-1,23
 303 673 303 673 311 662 c 0,24,25
 321 650 321 650 315 643 c 0,26,27
 311 638 311 638 272 474.5 c 128,-1,28
 233 311 233 311 233 303 c 0,29,30
 233 302 233 302 238 302 c 128,-1,31
 243 302 243 302 251.5 303.5 c 128,-1,32
 260 305 260 305 270 307 c 0,33,34
 293 316 293 316 303 315.5 c 128,-1,35
 313 315 313 315 326 308 c 0,36,37
 376 281 376 281 374 190 c 0,38,39
 374 55 374 55 297 12 c 0,40,41
 236 -21 236 -21 193 12 c 2,42,-1
 174 28 l 1,43,-1
 147 -86 l 2,44,45
 95 -320 95 -320 83 -340 c 0,46,47
 76 -351 76 -351 61 -341 c 0,0,1
129 66 m 0,48,49
 151 92 151 92 166 160 c 128,-1,50
 181 228 181 228 172 255 c 0,51,52
 166 272 166 272 154 276.5 c 128,-1,53
 142 281 142 281 117 278 c 0,54,55
 86 276 86 276 54.5 223 c 128,-1,56
 23 170 23 170 23 119 c 0,57,58
 23 55 23 55 57.5 38.5 c 128,-1,59
 92 22 92 22 129 66 c 0,48,49
296 58 m 0,60,61
 344 100 344 100 343 189 c 0,62,63
 343 241 343 241 331 259 c 128,-1,64
 319 277 319 277 292 277 c 0,65,66
 256 277 256 277 236.5 247 c 128,-1,67
 217 217 217 217 199 141 c 0,68,69
 189 98 189 98 189 84.5 c 128,-1,70
 189 71 189 71 196 59 c 0,71,72
 211 37 211 37 241 36.5 c 128,-1,73
 271 36 271 36 296 58 c 0,60,61
EndSplineSet
EndChar

StartChar: glyph
Encoding: 1061 1061 45
Width: 580
VWidth: 1000
GlyphClass: 2
Flags: W
LayerCount: 2
Fore
SplineSet
364 6 m 4,0,1
 333 16 333 16 309.5 54.5 c 132,-1,2
 286 93 286 93 286 132 c 4,3,4
 286 147 286 147 267 114 c 4,5,6
 228 48 228 48 194.5 26 c 132,-1,7
 161 4 161 4 107 6 c 4,8,9
 80 8 80 8 67.5 14.5 c 132,-1,10
 55 21 55 21 37 43 c 4,11,12
 9 76 9 76 2 109 c 4,13,14
 -4 159 -4 159 12 161 c 4,15,16
 29 163 29 163 44 112 c 4,17,18
 45 111 45 111 45 109 c 4,19,20
 58 64 58 64 82 48 c 4,21,22
 175 -6 175 -6 253 184 c 4,23,24
 290 271 290 271 311 405.5 c 132,-1,25
 332 540 332 540 315 586 c 4,26,27
 295 650 295 650 242 634 c 4,28,29
 192 619 192 619 156 549 c 4,30,31
 138 511 138 511 131 467 c 4,32,33
 126 425 126 425 114.5 426 c 132,-1,34
 103 427 103 427 99 475 c 4,35,36
 95 556 95 556 144.5 612 c 132,-1,37
 194 668 194 668 270 668 c 4,38,39
 293 668 293 668 304 664 c 132,-1,40
 315 660 315 660 327 649 c 4,41,42
 340 636 340 636 351 607 c 132,-1,43
 362 578 362 578 362 553 c 4,44,45
 362 542 362 542 364 542 c 260,46,47
 366 542 366 542 374 564 c 4,48,49
 405 630 405 630 455 656 c 132,-1,50
 505 682 505 682 558 656 c 4,51,52
 594 640 594 640 609 594 c 4,53,54
 621 555 621 555 598 553 c 4,55,56
 586 553 586 553 578 575 c 4,57,58
 568 598 568 598 545 617 c 132,-1,59
 522 636 522 636 503 636 c 260,60,61
 485 636 485 636 451 603 c 4,62,63
 408 560 408 560 374 460.5 c 132,-1,64
 340 361 340 361 325 233 c 4,65,66
 319 181 319 181 318.5 160.5 c 132,-1,67
 318 140 318 140 327 112 c 4,68,69
 339 70 339 70 359 53 c 132,-1,70
 379 36 379 36 412 36 c 4,71,72
 434 36 434 36 447.5 42 c 132,-1,73
 461 48 461 48 487 75 c 4,74,75
 529 113 529 113 549 143 c 4,76,77
 585 195 585 195 597 166 c 4,78,79
 606 148 606 148 529 60 c 4,80,81
 509 38 509 38 469 18.5 c 132,-1,82
 429 -1 429 -1 407 -1 c 4,83,84
 389 0 389 0 364 6 c 4,0,1
EndSplineSet
EndChar

StartChar: glyph
Encoding: 1093 1093 46
Width: 387
VWidth: 1028
GlyphClass: 2
Flags: W
LayerCount: 2
Fore
SplineSet
45 6.5 m 128,-1,1
 29 12 29 12 12 33 c 0,2,3
 0 46 0 46 -1 53 c 128,-1,4
 -2 60 -2 60 6.5 68 c 128,-1,5
 15 76 15 76 20.5 75.5 c 128,-1,6
 26 75 26 75 39 61 c 0,7,8
 59 41 59 41 81.5 40 c 128,-1,9
 104 39 104 39 119 60 c 0,10,11
 144 93 144 93 159 165 c 128,-1,12
 174 237 174 237 161 266 c 0,13,14
 157 278 157 278 132 280 c 0,15,16
 112 280 112 280 83.5 253.5 c 128,-1,17
 55 227 55 227 29 183 c 0,18,19
 4 141 4 141 -11 151 c 0,20,21
 -15 153 -15 153 -16 161 c 0,22,23
 -20 170 -20 170 8 209.5 c 128,-1,24
 36 249 36 249 64 278 c 0,25,26
 101 315 101 315 134 317.5 c 128,-1,27
 167 320 167 320 186 289 c 2,28,-1
 200 266 l 1,29,-1
 224 293 l 2,30,31
 257 326 257 326 299 317 c 128,-1,32
 341 308 341 308 351 266 c 0,33,34
 360 228 360 228 343 224 c 0,35,36
 330 219 330 219 319 245 c 0,37,38
 319 246 319 246 318 249 c 0,39,40
 314 266 314 266 307 271 c 128,-1,41
 300 276 300 276 285 278 c 0,42,43
 262 280 262 280 246.5 267 c 128,-1,44
 231 254 231 254 215 216 c 0,45,46
 200 179 200 179 193 121.5 c 128,-1,47
 186 64 186 64 196 50 c 0,48,49
 207 38 207 38 231 38.5 c 128,-1,50
 255 39 255 39 275 50 c 0,51,52
 295 62 295 62 338 121 c 0,53,54
 383 185 383 185 395 172 c 0,55,56
 397 168 397 168 397 162 c 0,57,58
 399 149 399 149 359 94 c 128,-1,59
 319 39 319 39 297 23 c 0,60,61
 255 -2 255 -2 217.5 2 c 128,-1,62
 180 6 180 6 167 36 c 2,63,-1
 158 58 l 1,64,-1
 145 39 l 2,65,66
 135 27 135 27 110 13.5 c 128,-1,67
 85 0 85 0 71 0 c 0,68,0
 61 1 61 1 45 6.5 c 128,-1,1
EndSplineSet
EndChar

StartChar: glyph
Encoding: 1062 1062 47
Width: 539
VWidth: 1028
GlyphClass: 2
Flags: W
LayerCount: 2
Fore
SplineSet
250 -315 m 0,0,1
 225 -309 225 -309 216.5 -290.5 c 128,-1,2
 208 -272 208 -272 211 -234 c 0,3,4
 215 -186 215 -186 236.5 -155.5 c 128,-1,5
 258 -125 258 -125 345 -31 c 0,6,7
 387 12 387 12 393 14.5 c 128,-1,8
 399 17 399 17 405 37 c 2,9,-1
 410 60 l 1,10,-1
 383 40 l 2,11,12
 358 23 358 23 347.5 22 c 128,-1,13
 337 21 337 21 320.5 33 c 128,-1,14
 304 45 304 45 304 77.5 c 128,-1,15
 304 110 304 110 323 199 c 0,16,17
 343 292 343 292 338 294 c 1,18,19
 337 292 l 0,20,21
 336 290 336 290 332.5 285.5 c 128,-1,22
 329 281 329 281 324.5 273.5 c 128,-1,23
 320 266 320 266 315.5 258.5 c 128,-1,24
 311 251 311 251 309 242 c 0,25,26
 264 150 264 150 208.5 85.5 c 128,-1,27
 153 21 153 21 124 21 c 0,28,29
 107 21 107 21 87 32.5 c 128,-1,30
 67 44 67 44 59 60 c 0,31,32
 47 86 47 86 53 142.5 c 128,-1,33
 59 199 59 199 91 354 c 0,34,35
 133 545 133 545 137.5 586 c 128,-1,36
 142 627 142 627 126 641 c 0,37,38
 95 672 95 672 53.5 646.5 c 128,-1,39
 12 621 12 621 -10 562 c 0,40,41
 -19 537 -19 537 -18.5 521.5 c 128,-1,42
 -18 506 -18 506 -13 482 c 0,43,44
 -7 449 -7 449 -9.5 439 c 128,-1,45
 -12 429 -12 429 -27 429 c 0,46,47
 -39 429 -39 429 -44.5 447 c 128,-1,48
 -50 465 -50 465 -50 514 c 0,49,50
 -51 592 -51 592 -11 640.5 c 128,-1,51
 29 689 29 689 96 689 c 0,52,53
 124 689 124 689 140 680.5 c 128,-1,54
 156 672 156 672 167 650 c 0,55,56
 179 625 179 625 178 589 c 128,-1,57
 177 553 177 553 152 454 c 0,58,59
 126 334 126 334 122.5 313.5 c 128,-1,60
 119 293 119 293 98 206 c 0,61,62
 85 145 85 145 83.5 126.5 c 128,-1,63
 82 108 82 108 91 88 c 0,64,65
 103 61 103 61 120 60 c 0,66,67
 156 60 156 60 219 159.5 c 128,-1,68
 282 259 282 259 354 424 c 0,69,70
 381 491 381 491 424 657 c 0,71,72
 434 690 434 690 448 689 c 0,73,74
 468 689 468 689 464 665 c 0,75,76
 464 661 464 661 402.5 382.5 c 128,-1,77
 341 104 341 104 341 87 c 0,78,79
 341 56 341 56 367 69 c 0,80,81
 394 81 394 81 413 126 c 0,82,83
 425 152 425 152 440 152 c 0,84,85
 452 152 452 152 453.5 144 c 128,-1,86
 455 136 455 136 449 103 c 0,87,88
 443 76 443 76 449 75 c 0,89,90
 453 75 453 75 461 90 c 0,91,92
 473 117 473 117 503 154 c 128,-1,93
 533 191 533 191 543 191 c 0,94,95
 570 192 570 192 527 128 c 0,96,97
 517 115 517 115 503 94 c 0,98,99
 445 17 445 17 433 -11 c 128,-1,100
 421 -39 421 -39 397 -132 c 0,101,102
 375 -226 375 -226 363.5 -257 c 128,-1,103
 352 -288 352 -288 329 -309 c 0,104,105
 313 -321 313 -321 295.5 -322.5 c 128,-1,106
 278 -324 278 -324 250 -315 c 0,0,1
319 -267 m 0,107,108
 332 -252 332 -252 341 -223 c 0,109,110
 354 -171 354 -171 369.5 -107.5 c 128,-1,111
 385 -44 385 -44 383 -40 c 0,112,113
 383 -39 383 -39 375 -47.5 c 128,-1,114
 367 -56 367 -56 352.5 -72 c 128,-1,115
 338 -88 338 -88 323 -105 c 0,116,117
 264 -172 264 -172 248.5 -222 c 128,-1,118
 233 -272 233 -272 267 -285 c 0,119,120
 294 -294 294 -294 319 -267 c 0,107,108
EndSplineSet
EndChar

StartChar: glyph
Encoding: 1094 1094 48
Width: 464
VWidth: 1054
GlyphClass: 2
Flags: W
LayerCount: 2
Fore
SplineSet
156 -310 m 0,0,1
 144 -299 144 -299 139 -292 c 0,2,3
 127 -265 127 -265 128 -259 c 0,4,5
 124 -217 124 -217 142 -184 c 1,6,-1
 164 -155 l 2,7,8
 185 -132 l 0,9,10
 211 -98 l 0,11,12
 244 -56 244 -56 298 -2 c 0,13,14
 342 48 342 48 335 50 c 0,15,16
 331 50 331 50 315 39 c 0,17,18
 295 24 295 24 285 23 c 0,19,20
 273 23 273 23 256.5 41.5 c 128,-1,21
 240 60 240 60 244 85 c 0,22,23
 248 112 248 112 240.5 110 c 128,-1,24
 233 108 233 108 233 102 c 0,25,26
 233 90 233 90 210.5 63.5 c 128,-1,27
 188 37 188 37 172 31 c 0,28,29
 150 21 150 21 129.5 29 c 128,-1,30
 109 37 109 37 105 60 c 0,31,32
 101 80 101 80 123 181 c 0,33,34
 145 274 145 274 147 294 c 0,35,36
 149 321 149 321 107 277 c 0,37,38
 81 250 81 250 65 232 c 0,39,40
 48 214 48 214 48 211 c 0,41,42
 50 209 50 209 38 189 c 0,43,44
 33 180 33 180 22 179 c 0,45,46
 12 175 12 175 6 177.5 c 128,-1,47
 0 180 0 180 0 188 c 0,48,49
 0 200 0 200 49 260 c 128,-1,50
 98 320 98 320 114 330 c 0,51,52
 134 342 134 342 152 341 c 0,53,54
 169 339 169 339 179 320 c 0,55,56
 189 300 189 300 156 168 c 0,57,58
 130 65 130 65 148 61 c 0,59,60
 158 60 158 60 183 88 c 0,61,62
 216 126 216 126 243.5 179 c 128,-1,63
 271 232 271 232 283 278 c 0,64,65
 288 300 288 300 292.5 313 c 128,-1,66
 297 326 297 326 302 334 c 0,67,68
 306 343 306 343 310.5 344 c 128,-1,69
 315 345 315 345 319 341 c 0,70,71
 329 336 329 336 326 309 c 0,72,73
 322 283 322 283 300 190 c 0,74,75
 273 77 273 77 282 69 c 0,76,77
 302 49 302 49 335 117 c 0,78,79
 353 156 353 156 368 156 c 0,80,81
 384 154 384 154 370 91 c 0,82,83
 368 79 368 79 372 80 c 0,84,85
 384 86 384 86 438 172 c 0,86,87
 458 200 458 200 476 196 c 0,88,89
 485 195 485 195 484 185 c 0,90,91
 484 176 484 176 446 121 c 0,92,93
 408 67 408 67 373 26 c 0,94,95
 353 0 353 0 324 -120 c 0,96,97
 296 -243 296 -243 281 -269 c 0,98,99
 258 -309 258 -309 220 -323 c 0,100,101
 182 -333 182 -333 156 -310 c 0,0,1
238 -270 m 0,102,103
 258 -247 258 -247 265 -218 c 128,-1,104
 272 -189 272 -189 291.5 -115.5 c 128,-1,105
 311 -42 311 -42 308 -40 c 128,-1,106
 305 -38 305 -38 277 -71 c 128,-1,107
 249 -104 249 -104 219 -144 c 128,-1,108
 189 -184 189 -184 181 -199 c 0,109,110
 165 -230 165 -230 164 -248 c 128,-1,111
 163 -266 163 -266 178 -280 c 0,112,113
 205 -310 205 -310 238 -270 c 0,102,103
EndSplineSet
EndChar

StartChar: glyph
Encoding: 1063 1063 49
Width: 494
VWidth: 1000
GlyphClass: 2
Flags: W
LayerCount: 2
Fore
SplineSet
310 13 m 0,0,1
 293 30 293 30 292.5 57.5 c 128,-1,2
 292 85 292 85 311 172 c 0,3,4
 331 264 331 264 334 273 c 0,5,6
 336 285 336 285 342 308 c 2,7,-1
 348 331 l 1,8,-1
 325 308 l 2,9,10
 303 285 303 285 304 282 c 0,11,12
 306 278 306 278 285.5 271 c 128,-1,13
 265 264 265 264 239 257.5 c 128,-1,14
 213 251 213 251 201 251 c 0,15,16
 183 251 183 251 153 264.5 c 128,-1,17
 123 278 123 278 124 287 c 0,18,19
 125 293 125 293 119 311 c 0,20,21
 113 331 113 331 113.5 356 c 128,-1,22
 114 381 114 381 132 468 c 0,23,24
 147 548 147 548 147 577.5 c 128,-1,25
 147 607 147 607 129 625 c 0,26,27
 107 645 107 645 66.5 624 c 128,-1,28
 26 603 26 603 6 559 c 0,29,30
 -11 520 -11 520 -1 429 c 0,31,32
 1 409 1 409 -13 406 c 128,-1,33
 -27 403 -27 403 -36 424 c 0,34,35
 -45 444 -45 444 -42.5 493 c 128,-1,36
 -40 542 -40 542 -29 567 c 0,37,38
 -13 615 -13 615 22.5 641 c 128,-1,39
 58 667 58 667 105 667 c 0,40,41
 133 667 133 667 153.5 655 c 128,-1,42
 174 643 174 643 178 621 c 0,43,44
 191 557 191 557 167 448 c 0,45,46
 147 357 147 357 155 324 c 128,-1,47
 163 291 163 291 208 291 c 0,48,49
 241 291 241 291 275.5 310.5 c 128,-1,50
 310 330 310 330 331 362 c 0,51,52
 351 393 351 393 365.5 436.5 c 128,-1,53
 380 480 380 480 399 565 c 0,54,55
 412 634 412 634 418 648 c 128,-1,56
 424 662 424 662 437 662 c 0,57,58
 452 662 452 662 454 656 c 0,59,60
 455 645 455 645 433 551 c 0,61,62
 357 214 357 214 340.5 136.5 c 128,-1,63
 324 59 324 59 331 47 c 0,64,65
 344 20 344 20 383 47 c 0,66,67
 403 59 403 59 416 73.5 c 128,-1,68
 429 88 429 88 460 128 c 0,69,70
 493 172 493 172 502 169 c 0,71,72
 514 165 514 165 511 152.5 c 128,-1,73
 508 140 508 140 480 101 c 0,74,75
 447 57 447 57 427.5 37 c 128,-1,76
 408 17 408 17 381 6 c 0,77,78
 353 -6 353 -6 339.5 -4.5 c 128,-1,79
 326 -3 326 -3 310 13 c 0,0,1
EndSplineSet
EndChar

StartChar: glyph
Encoding: 1095 1095 50
Width: 316
VWidth: 1027
GlyphClass: 2
Flags: W
LayerCount: 2
Fore
SplineSet
137 17 m 0,0,1
 124 29 124 29 120.5 39.5 c 128,-1,2
 117 50 117 50 117 78 c 0,3,4
 117 104 117 104 121 121.5 c 128,-1,5
 125 139 125 139 142 167 c 0,6,7
 169 211 169 211 189 234 c 2,8,-1
 207 254 l 1,9,-1
 180 258 l 2,10,11
 153 262 153 262 139 273 c 0,12,13
 126 285 126 285 111.5 273.5 c 128,-1,14
 97 262 97 262 65 211 c 0,15,16
 25 150 25 150 10 148 c 0,17,18
 5 148 5 148 -1 156 c 0,19,20
 -11 169 -11 169 59 262 c 0,21,22
 95 307 95 307 114.5 315.5 c 128,-1,23
 134 324 134 324 161 305 c 2,24,-1
 185 288 l 1,25,-1
 223 304 l 2,26,27
 249 315 249 315 257 315 c 128,-1,28
 265 315 265 315 273 308 c 0,29,30
 293 288 293 288 275 276 c 0,31,32
 262 266 262 266 227.5 224.5 c 128,-1,33
 193 183 193 183 175 151 c 0,34,35
 135 81 135 81 158 50 c 0,36,37
 176 27 176 27 205.5 46.5 c 128,-1,38
 235 66 235 66 286 134 c 0,39,40
 313 172 313 172 324 172 c 0,41,42
 349 167 349 167 311 113 c 0,43,44
 305 103 305 103 297 92 c 0,45,46
 247 26 247 26 208.5 8 c 128,-1,47
 170 -10 170 -10 137 17 c 0,0,1
EndSplineSet
EndChar

StartChar: glyph
Encoding: 1064 1064 51
Width: 722
VWidth: 1000
GlyphClass: 2
Flags: W
LayerCount: 2
Fore
SplineSet
59 12 m 0,0,1
 39 37 39 37 34 65 c 128,-1,2
 29 93 29 93 38.5 149.5 c 128,-1,3
 48 206 48 206 81 345 c 0,4,5
 133 563 133 563 129 579 c 0,6,7
 129 602 129 602 114 615.5 c 128,-1,8
 99 629 99 629 75 629 c 0,9,10
 55 629 55 629 44 623.5 c 128,-1,11
 33 618 33 618 12 598 c 0,12,13
 -43 539 -43 539 -26 459 c 0,14,15
 -20 423 -20 423 -23.5 411.5 c 128,-1,16
 -27 400 -27 400 -45 403 c 0,17,18
 -55 405 -55 405 -57 420 c 128,-1,19
 -59 435 -59 435 -59 487 c 0,20,21
 -59 543 -59 543 -56 559 c 128,-1,22
 -53 575 -53 575 -36 600 c 0,23,24
 -10 636 -10 636 13 650.5 c 128,-1,25
 36 665 36 665 70 667 c 0,26,27
 112 669 112 669 131.5 657 c 128,-1,28
 151 645 151 645 161 613 c 0,29,30
 170 586 170 586 164 545.5 c 128,-1,31
 158 505 158 505 129 392 c 0,32,33
 102 272 102 272 90 216.5 c 128,-1,34
 78 161 78 161 72 120.5 c 128,-1,35
 66 80 66 80 69 67.5 c 128,-1,36
 72 55 72 55 83 44 c 0,37,38
 99 29 99 29 105 29 c 0,39,40
 132 29 132 29 188 117.5 c 128,-1,41
 244 206 244 206 298 331 c 128,-1,42
 352 456 352 456 374 556 c 0,43,44
 397 657 397 657 401 662 c 0,45,46
 405 668 405 668 421 667.5 c 128,-1,47
 437 667 437 667 437 659 c 0,48,49
 437 653 437 653 395 460 c 128,-1,50
 353 267 353 267 331 175 c 0,51,52
 316 109 316 109 321.5 69 c 128,-1,53
 327 29 327 29 352 29 c 0,54,55
 368 29 368 29 409 80.5 c 128,-1,56
 450 132 450 132 476 186 c 0,57,58
 542 320 542 320 570 392 c 128,-1,59
 598 464 598 464 618 549 c 0,60,61
 633 613 633 613 641 651 c 0,62,63
 643 661 643 661 652.5 666 c 128,-1,64
 662 671 662 671 670 668 c 128,-1,65
 678 665 678 665 678 655 c 0,66,67
 678 643 678 643 615.5 357.5 c 128,-1,68
 553 72 553 72 556 58 c 0,69,70
 562 10 562 10 611 45 c 0,71,72
 642 67 642 67 679 117 c 0,73,74
 731 186 731 186 737 156 c 0,75,76
 737 155 737 155 738 152 c 0,77,78
 740 140 740 140 698.5 87 c 128,-1,79
 657 34 657 34 633 17 c 0,80,81
 606 -1 606 -1 577 -1.5 c 128,-1,82
 548 -2 548 -2 532 13 c 0,83,84
 519 28 519 28 520.5 68.5 c 128,-1,85
 522 109 522 109 540 186 c 0,86,87
 560 267 560 267 557 270 c 1,88,89
 553 262 l 0,90,91
 548 253 548 253 540 238.5 c 128,-1,92
 532 224 532 224 524 207 c 0,93,94
 481 111 481 111 435.5 55 c 128,-1,95
 390 -1 390 -1 358 -1 c 0,96,97
 331 -1 331 -1 316.5 6 c 128,-1,98
 302 13 302 13 292 32 c 0,99,100
 280 58 280 58 281.5 94.5 c 128,-1,101
 283 131 283 131 299 200 c 0,102,103
 303 220 303 220 307 239.5 c 128,-1,104
 311 259 311 259 312.5 268.5 c 128,-1,105
 314 278 314 278 313 278 c 0,106,107
 311 278 311 278 288 227 c 0,108,109
 230 98 230 98 166 33 c 0,110,111
 144 10 144 10 132 4.5 c 128,-1,112
 120 -1 120 -1 101 -1 c 0,113,114
 71 -1 71 -1 59 12 c 0,0,1
EndSplineSet
EndChar

StartChar: glyph
Encoding: 1096 1096 52
Width: 518
VWidth: 1028
GlyphClass: 2
Flags: W
LayerCount: 2
Fore
SplineSet
374 16 m 0,0,1
 363 26 363 26 360.5 35 c 128,-1,2
 358 44 358 44 359 65 c 0,3,4
 363 87 363 87 362 88 c 0,5,6
 361 89 361 89 356 82 c 0,7,8
 346 67 346 67 321 36.5 c 128,-1,9
 296 6 296 6 270.5 6 c 128,-1,10
 245 6 245 6 236 17 c 128,-1,11
 227 28 227 28 227 59 c 2,12,-1
 224 88 l 1,13,-1
 213 70 l 2,14,15
 170 6 170 6 132 9 c 0,16,17
 112 10 112 10 104 23 c 128,-1,18
 96 36 96 36 99.5 65 c 128,-1,19
 103 94 103 94 117 159 c 0,20,21
 144 272 144 272 131 277 c 0,22,23
 119 281 119 281 71 218 c 0,24,25
 67 214 67 214 64 208 c 0,26,27
 19 147 19 147 11 147 c 0,28,29
 -16 147 -16 147 16 201 c 0,30,31
 39 239 39 239 82 281 c 0,32,33
 148 347 148 347 167 292 c 0,34,35
 172 277 172 277 168 251.5 c 128,-1,36
 164 226 164 226 142 124 c 0,37,38
 122 41 122 41 142 39 c 0,39,40
 159 39 159 39 212 135.5 c 128,-1,41
 265 232 265 232 272 280 c 0,42,43
 276 300 276 300 281 306.5 c 128,-1,44
 286 313 286 313 297 315 c 0,45,46
 309 317 309 317 311 313 c 128,-1,47
 313 309 313 309 310 289 c 0,48,49
 306 262 306 262 281 169 c 0,50,51
 264 99 264 99 262 71.5 c 128,-1,52
 260 44 260 44 272 39 c 0,53,54
 284 35 284 35 313 78 c 128,-1,55
 342 121 342 121 369.5 176.5 c 128,-1,56
 397 232 397 232 401 260 c 0,57,58
 410 315 410 315 429 315 c 0,59,60
 433 314 433 314 437 310 c 0,61,62
 442 305 442 305 438.5 279 c 128,-1,63
 435 253 435 253 416 179 c 0,64,65
 405 135 405 135 400.5 108.5 c 128,-1,66
 396 82 396 82 395 65 c 128,-1,67
 394 48 394 48 395.5 43.5 c 128,-1,68
 397 39 397 39 406 39 c 0,69,70
 415 39 415 39 436 64.5 c 128,-1,71
 457 90 457 90 482 130 c 0,72,73
 525 194 525 194 535 161 c 0,74,75
 537 146 537 146 491.5 83.5 c 128,-1,76
 446 21 446 21 422 7 c 0,77,78
 405 -3 405 -3 396 0 c 128,-1,79
 387 3 387 3 374 16 c 0,0,1
EndSplineSet
EndChar

StartChar: glyph
Encoding: 1065 1065 53
Width: 741
VWidth: 1028
GlyphClass: 2
Flags: W
LayerCount: 2
Fore
SplineSet
426 -321 m 0,0,1
 378 -295 378 -295 395 -221 c 0,2,3
 405 -178 405 -178 430 -145 c 128,-1,4
 455 -112 455 -112 546 -31 c 0,5,6
 598 17 598 17 602 37 c 2,7,-1
 608 60 l 1,8,-1
 584 39 l 2,9,10
 544 6 544 6 508 36 c 0,11,12
 483 56 483 56 518 208 c 0,13,14
 538 294 538 294 535 299 c 0,15,16
 534 300 534 300 530.5 294.5 c 128,-1,17
 527 289 527 289 522.5 279.5 c 128,-1,18
 518 270 518 270 514 259 c 0,19,20
 461 130 461 130 398 65.5 c 128,-1,21
 335 1 335 1 291 29 c 0,22,23
 263 47 263 47 260.5 91.5 c 128,-1,24
 258 136 258 136 278 235 c 0,25,26
 282 251 282 251 285 264.5 c 128,-1,27
 288 278 288 278 288 287 c 0,28,-1
 288 294 l 0,29,30
 284 294 284 294 244 218 c 0,31,32
 216 157 216 157 180.5 106 c 128,-1,33
 145 55 145 55 117 36 c 0,34,35
 78 9 78 9 44.5 26.5 c 128,-1,36
 11 44 11 44 5 94 c 0,37,38
 3 122 3 122 15 186 c 128,-1,39
 27 250 27 250 72 448 c 0,40,41
 99 569 99 569 102 602.5 c 128,-1,42
 105 636 105 636 86 651 c 0,43,44
 53 671 53 671 15.5 650 c 128,-1,45
 -22 629 -22 629 -43 581 c 0,46,47
 -55 550 -55 550 -56.5 526.5 c 128,-1,48
 -58 503 -58 503 -48 457 c 0,49,50
 -44 437 -44 437 -55.5 430.5 c 128,-1,51
 -67 424 -67 424 -80 440 c 0,52,53
 -91 453 -91 453 -90.5 511.5 c 128,-1,54
 -90 570 -90 570 -80 595 c 0,55,56
 -53 659 -53 659 4 686 c 128,-1,57
 61 713 61 713 110 682 c 0,58,59
 126 671 126 671 135.5 642 c 128,-1,60
 145 613 145 613 142 584 c 0,61,62
 130 517 130 517 58 220 c 0,63,64
 35 123 35 123 42 97 c 0,65,66
 62 14 62 14 140 114 c 0,67,68
 188 175 188 175 246 300 c 0,69,70
 290 392 290 392 315 457 c 128,-1,71
 340 522 340 522 358 612 c 0,72,73
 370 666 370 666 376.5 677.5 c 128,-1,74
 383 689 383 689 396 689 c 0,75,76
 414 689 414 689 413 678 c 128,-1,77
 412 667 412 667 353 401 c 0,78,79
 309 202 309 202 299 142 c 128,-1,80
 289 82 289 82 304 69 c 0,81,82
 320 53 320 53 345 67.5 c 128,-1,83
 370 82 370 82 402.5 127 c 128,-1,84
 435 172 435 172 468 243 c 0,85,86
 582 478 582 478 619 661 c 0,87,88
 623 681 623 681 628.5 687.5 c 128,-1,89
 634 694 634 694 648 694 c 0,90,91
 663 694 663 694 662 682 c 0,92,93
 662 672 662 672 624.5 503.5 c 128,-1,94
 587 335 587 335 559 217 c 0,95,96
 537 123 537 123 534.5 92 c 128,-1,97
 532 61 532 61 548 60 c 0,98,99
 561 59 561 59 587.5 84.5 c 128,-1,100
 614 110 614 110 619 132 c 0,101,102
 623 152 623 152 640 153 c 0,103,104
 652 153 652 153 653.5 146.5 c 128,-1,105
 655 140 655 140 651 112 c 2,106,-1
 648 71 l 1,107,-1
 689 132 l 2,108,109
 755 223 755 223 754 179 c 0,110,111
 754 166 754 166 694 83 c 128,-1,112
 634 0 634 0 633.5 -4.5 c 128,-1,113
 633 -9 633 -9 628.5 -20 c 128,-1,114
 624 -31 624 -31 595.5 -143.5 c 128,-1,115
 567 -256 567 -256 556 -280 c 0,116,117
 536 -316 536 -316 497.5 -327 c 128,-1,118
 459 -338 459 -338 426 -321 c 0,0,1
500 -285 m 0,119,120
 520 -269 520 -269 531 -251 c 0,121,122
 537 -239 537 -239 560.5 -147 c 128,-1,123
 584 -55 584 -55 581 -52 c 128,-1,124
 578 -49 578 -49 546 -79.5 c 128,-1,125
 514 -110 514 -110 479.5 -146.5 c 128,-1,126
 445 -183 445 -183 439 -195 c 0,127,128
 412 -254 412 -254 437 -286 c 0,129,130
 458 -318 458 -318 500 -285 c 0,119,120
EndSplineSet
EndChar

StartChar: glyph
Encoding: 1097 1097 54
Width: 597
VWidth: 1054
GlyphClass: 2
Flags: W
LayerCount: 2
Fore
SplineSet
278.5 -300 m 128,-1,1
 259 -280 259 -280 259 -245 c 0,2,3
 259 -202 259 -202 283 -161.5 c 128,-1,4
 307 -121 307 -121 372 -58 c 0,5,6
 449 22 449 22 457 36 c 256,7,8
 463 48 463 48 457 48.5 c 128,-1,9
 451 49 451 49 439 37 c 0,10,11
 419 11 419 11 393 33 c 128,-1,12
 367 55 367 55 373 92 c 2,13,-1
 379 117 l 1,14,-1
 356 85 l 2,15,16
 291 -2 291 -2 246 39 c 0,17,18
 234 51 234 51 238 86 c 0,19,20
 242 111 242 111 240 110 c 2,21,-1
 231 101 l 2,22,23
 231 100 231 100 229 98 c 0,24,25
 217 78 217 78 190 50 c 0,26,27
 167 25 167 25 144 26.5 c 128,-1,28
 121 28 121 28 110 52 c 0,29,30
 104 65 104 65 106 88.5 c 128,-1,31
 108 112 108 112 124 186 c 0,32,33
 149 296 149 296 145 302 c 0,34,35
 132 314 132 314 80 248 c 0,36,37
 38 195 38 195 25 182 c 128,-1,38
 12 169 12 169 4 175 c 0,39,40
 -14 195 -14 195 71 289 c 0,41,42
 102 322 102 322 115.5 331.5 c 128,-1,43
 129 341 129 341 145 341 c 0,44,45
 176 341 176 341 180.5 317.5 c 128,-1,46
 185 294 185 294 167 218 c 0,47,48
 130 65 130 65 150 63 c 0,49,50
 159 63 159 63 179 88 c 0,51,52
 202 115 202 115 238.5 187.5 c 128,-1,53
 275 260 275 260 285 302 c 0,54,55
 296 344 296 344 309 341 c 0,56,57
 321 341 321 341 320 323 c 0,58,59
 319 301 319 301 296 193 c 0,60,61
 269 75 269 75 275 65 c 0,62,63
 287 53 287 53 317.5 89.5 c 128,-1,64
 348 126 348 126 377.5 185.5 c 128,-1,65
 407 245 407 245 416 289 c 0,66,67
 428 345 428 345 448 341 c 0,68,69
 452 341 452 341 457 336 c 0,70,71
 463 330 463 330 435 217 c 0,72,73
 415 130 415 130 411 99.5 c 128,-1,74
 407 69 407 69 416 63 c 0,75,76
 421 59 421 59 441 81.5 c 128,-1,77
 461 104 461 104 476 136 c 0,78,79
 485 153 485 153 496.5 159.5 c 128,-1,80
 508 166 508 166 516 156 c 0,81,82
 520 150 520 150 510 117 c 0,83,84
 499 81 499 81 506 83 c 0,85,86
 512 83 512 83 547 130 c 0,87,88
 548 134 548 134 551 136 c 0,89,90
 594 200 594 200 598.5 200.5 c 128,-1,91
 603 201 603 201 612 190 c 0,92,93
 618 180 618 180 609.5 164 c 128,-1,94
 601 148 601 148 537 64 c 2,95,-1
 478 -13 l 1,96,-1
 451 -129 l 2,97,98
 424 -246 424 -246 399 -283 c 128,-1,99
 374 -320 374 -320 329 -320 c 0,100,0
 298 -320 298 -320 278.5 -300 c 128,-1,1
370 -264 m 0,101,102
 379 -254 379 -254 395.5 -199.5 c 128,-1,103
 412 -145 412 -145 424.5 -94.5 c 128,-1,104
 437 -44 437 -44 432 -44 c 0,105,106
 426 -44 426 -44 373 -104 c 128,-1,107
 320 -164 320 -164 309 -188 c 0,108,109
 296 -215 296 -215 292.5 -241 c 128,-1,110
 289 -267 289 -267 300 -278 c 0,111,112
 312 -290 312 -290 335 -285 c 128,-1,113
 358 -280 358 -280 370 -264 c 0,101,102
EndSplineSet
EndChar

StartChar: glyph
Encoding: 1066 1066 55
Width: 408
VWidth: 1000
GlyphClass: 2
Flags: W
LayerCount: 2
Fore
SplineSet
156 0 m 0,0,1
 87 13 87 13 53 85 c 0,2,3
 40 112 40 112 38 129 c 128,-1,4
 36 146 36 146 37 190 c 0,5,6
 41 242 41 242 44.5 261 c 128,-1,7
 48 280 48 280 59 331 c 0,8,9
 71 375 71 375 92 465.5 c 128,-1,10
 113 556 113 556 124 589 c 0,11,12
 134 620 134 620 129 618 c 0,13,14
 127 618 127 618 117 616 c 0,15,16
 100 611 100 611 71 612 c 128,-1,17
 42 613 42 613 27 619 c 0,18,19
 -17 644 -17 644 -53 605 c 0,20,21
 -65 592 -65 592 -71.5 588 c 128,-1,22
 -78 584 -78 584 -85 590 c 0,23,24
 -94 596 -94 596 -89.5 614.5 c 128,-1,25
 -85 633 -85 633 -72 649 c 256,26,27
 -60 664 -60 664 -32 667.5 c 128,-1,28
 -4 671 -4 671 25 661 c 0,29,30
 73 645 73 645 163 665 c 0,31,32
 179 667 179 667 185 664.5 c 128,-1,33
 191 662 191 662 191 654 c 0,34,35
 191 641 191 641 185 630 c 0,36,37
 173 617 173 617 139 492 c 0,38,39
 117 405 117 405 123 401 c 0,40,41
 127 401 127 401 136 412 c 0,42,43
 184 460 184 460 266 457 c 128,-1,44
 348 454 348 454 384 402 c 0,45,46
 423 347 423 347 409.5 238.5 c 128,-1,47
 396 130 396 130 343 66 c 0,48,49
 312 29 312 29 256.5 9.5 c 128,-1,50
 201 -10 201 -10 156 0 c 0,0,1
267 56 m 0,51,52
 304 74 304 74 331 126.5 c 128,-1,53
 358 179 358 179 372 248 c 0,54,55
 376 298 376 298 358 354 c 0,56,57
 346 394 346 394 309.5 410.5 c 128,-1,58
 273 427 273 427 225.5 413.5 c 128,-1,59
 178 400 178 400 137 361 c 0,60,61
 110 335 110 335 102 320 c 128,-1,62
 94 305 94 305 86 266 c 0,63,64
 74 211 74 211 75 178 c 0,65,66
 75 93 75 93 135 53.5 c 128,-1,67
 195 14 195 14 267 56 c 0,51,52
EndSplineSet
EndChar

StartChar: glyph
Encoding: 1098 1098 56
Width: 360
VWidth: 1026
GlyphClass: 2
Flags: W
LayerCount: 2
Fore
SplineSet
202 6 m 0,0,1
 166 26 166 26 159.5 58.5 c 128,-1,2
 153 91 153 91 172 166 c 0,3,4
 189 251 189 251 195 270 c 0,5,6
 197 282 197 282 195 284.5 c 128,-1,7
 193 287 193 287 181 283 c 0,8,9
 164 279 164 279 151 289 c 0,10,11
 138 301 138 301 123 290.5 c 128,-1,12
 108 280 108 280 75 227 c 0,13,14
 27 152 27 152 9 162 c 0,15,16
 4 164 4 164 2 175 c 0,17,18
 2 188 2 188 50 257 c 128,-1,19
 98 326 98 326 118 336 c 0,20,21
 133 347 133 347 139 346 c 128,-1,22
 145 345 145 345 158 334 c 0,23,24
 175 317 175 317 184.5 316 c 128,-1,25
 194 315 194 315 211 332 c 0,26,27
 244 360 244 360 246 332 c 0,28,29
 250 312 250 312 235 273 c 2,30,-1
 224 238 l 1,31,-1
 255 242 l 2,32,33
 316 254 316 254 343 211 c 0,34,35
 361 178 361 178 359.5 135.5 c 128,-1,36
 358 93 358 93 335 61 c 0,37,38
 271 -37 271 -37 202 6 c 0,0,1
283 55 m 0,39,40
 319 83 319 83 323 132 c 128,-1,41
 327 181 327 181 297 202 c 0,42,43
 285 211 285 211 276 211 c 128,-1,44
 267 211 267 211 246 202 c 0,45,46
 229 196 229 196 222 185 c 128,-1,47
 215 174 215 174 207 151 c 0,48,49
 195 109 195 109 195 85 c 0,50,51
 195 46 195 46 222.5 37 c 128,-1,52
 250 28 250 28 283 55 c 0,39,40
EndSplineSet
EndChar

StartChar: glyph
Encoding: 1100 1100 57
Width: 294
VWidth: 1023
GlyphClass: 2
Flags: W
LayerCount: 2
Fore
SplineSet
123 5 m 0,0,1
 107 16 107 16 94.5 44 c 128,-1,2
 82 72 82 72 82 99 c 0,3,4
 82 127 82 127 104 211 c 0,5,6
 129 309 129 309 118 302 c 0,7,8
 117 301 117 301 113 297 c 0,9,10
 111 293 111 293 67 227 c 0,11,12
 8 140 8 140 0 183 c 0,13,14
 -2 195 -2 195 58.5 281.5 c 128,-1,15
 119 368 119 368 137 373 c 0,16,17
 154 379 154 379 167 375 c 0,18,19
 177 371 177 371 178 352.5 c 128,-1,20
 179 334 179 334 172 320 c 0,21,22
 167 310 167 310 159 281 c 0,23,24
 155 261 155 261 156.5 257.5 c 128,-1,25
 158 254 158 254 172 260 c 0,26,27
 210 280 210 280 249 258.5 c 128,-1,28
 288 237 288 237 297 189 c 0,29,30
 306 136 306 136 279.5 82.5 c 128,-1,31
 253 29 253 29 207.5 6 c 128,-1,32
 162 -17 162 -17 123 5 c 0,0,1
213 61 m 0,33,34
 263 104 263 104 259 168 c 0,35,36
 255 220 255 220 217 229 c 0,37,38
 201 233 201 233 178 227 c 0,39,40
 136 212 136 212 121 114 c 0,41,42
 117 88 117 88 119 76.5 c 128,-1,43
 121 65 121 65 134 52 c 0,44,45
 154 34 154 34 170 36 c 128,-1,46
 186 38 186 38 213 61 c 0,33,34
EndSplineSet
EndChar

StartChar: glyph
Encoding: 1070 1070 58
Width: 798
VWidth: 1000
GlyphClass: 2
Flags: W
LayerCount: 2
Fore
SplineSet
39 9 m 0,0,1
 17 21 17 21 3 40.5 c 128,-1,2
 -11 60 -11 60 -4 75 c 0,3,4
 0 88 0 88 13.5 87 c 128,-1,5
 27 86 27 86 33 69 c 0,6,7
 43 49 43 49 72 37.5 c 128,-1,8
 101 26 101 26 126 33 c 0,9,10
 146 38 146 38 171 60 c 128,-1,11
 196 82 196 82 208 107 c 0,12,13
 219 127 219 127 236 212.5 c 128,-1,14
 253 298 253 298 259 324.5 c 128,-1,15
 265 351 265 351 287 448 c 0,16,17
 313 571 313 571 327 608 c 0,18,19
 331 618 331 618 329 619.5 c 128,-1,20
 327 621 327 621 316 614 c 0,21,22
 280 596 280 596 218 618 c 0,23,24
 157 638 157 638 140 602 c 0,25,26
 130 582 130 582 108 581 c 0,27,28
 95 581 95 581 94 595 c 0,29,30
 94 611 94 611 113 632.5 c 128,-1,31
 132 654 132 654 152 660 c 0,32,33
 179 670 179 670 217 657 c 0,34,35
 283 635 283 635 335 657 c 0,36,37
 362 669 362 669 374 665 c 0,38,39
 384 663 384 663 385 648.5 c 128,-1,40
 386 634 386 634 379 625 c 0,41,42
 362 607 362 607 327 456 c 2,43,-1
 310 370 l 1,44,-1
 354 370 l 1,45,-1
 399 370 l 1,46,-1
 424 448 l 2,47,48
 460 556 460 556 510 608 c 128,-1,49
 560 660 560 660 638 667 c 0,50,51
 729 676 729 676 764 608 c 0,52,53
 816 525 816 525 811.5 392.5 c 128,-1,54
 807 260 807 260 749 140 c 0,55,56
 713 68 713 68 671.5 34.5 c 128,-1,57
 630 1 630 1 564 -2 c 0,58,59
 505 -6 505 -6 469 14 c 128,-1,60
 433 34 433 34 406 93 c 0,61,62
 395 119 395 119 392.5 143.5 c 128,-1,63
 390 168 390 168 390 233 c 2,64,-1
 390 331 l 1,65,-1
 345 331 l 1,66,-1
 303 331 l 1,67,-1
 292 291 l 2,68,69
 265 159 265 159 246.5 106 c 128,-1,70
 228 53 228 53 206 34 c 0,71,72
 166 1 166 1 121.5 -4 c 128,-1,73
 77 -9 77 -9 39 9 c 0,0,1
614 44 m 0,74,75
 666 66 666 66 709 149 c 128,-1,76
 752 232 752 232 766 343 c 0,77,78
 778 415 778 415 762 495 c 128,-1,79
 746 575 746 575 710 608 c 0,80,81
 690 628 690 628 656 628 c 0,82,83
 619 628 619 628 591 615 c 128,-1,84
 563 602 563 602 533 568 c 0,85,86
 475 507 475 507 447 392 c 128,-1,87
 419 277 419 277 432 174 c 128,-1,88
 445 71 445 71 494 45 c 0,89,90
 512 34 512 34 551.5 34 c 128,-1,91
 591 34 591 34 614 44 c 0,74,75
EndSplineSet
EndChar

StartChar: glyph
Encoding: 1102 1102 59
Width: 414
VWidth: 1027
GlyphClass: 2
Flags: W
LayerCount: 2
Fore
SplineSet
78 12 m 0,0,1
 78 24 78 24 110 149.5 c 128,-1,2
 142 275 142 275 137 281 c 128,-1,3
 132 287 132 287 105 260 c 0,4,5
 83 240 83 240 57 200.5 c 128,-1,6
 31 161 31 161 16 142 c 0,7,8
 11 142 11 142 1 155 c 0,9,10
 -3 160 -3 160 3.5 174.5 c 128,-1,11
 10 189 10 189 36 227 c 0,12,13
 80 291 80 291 115.5 308.5 c 128,-1,14
 151 326 151 326 168 292 c 0,15,16
 177 275 177 275 166.5 234.5 c 128,-1,17
 156 194 156 194 157.5 187.5 c 128,-1,18
 159 181 159 181 185 181 c 0,19,20
 201 181 201 181 205.5 184.5 c 128,-1,21
 210 188 210 188 210 196 c 0,22,23
 210 216 210 216 227.5 249.5 c 128,-1,24
 245 283 245 283 262 297 c 0,25,26
 299 324 299 324 341 317 c 128,-1,27
 383 310 383 310 401 270 c 0,28,29
 413 243 413 243 412.5 192 c 128,-1,30
 412 141 412 141 397 99 c 0,31,32
 379 43 379 43 355 22 c 128,-1,33
 331 1 331 1 286 1 c 0,34,35
 211 1 211 1 201 85 c 0,36,37
 196 127 196 127 200 132 c 0,38,39
 202 136 202 136 191 142 c 0,40,41
 164 147 164 147 148 141 c 0,42,43
 142 131 142 131 127.5 79.5 c 128,-1,44
 113 28 113 28 107 15 c 0,45,46
 103 6 103 6 96.5 3 c 128,-1,47
 90 0 90 0 84 3 c 128,-1,48
 78 6 78 6 78 12 c 0,0,1
331 52 m 0,49,50
 367 88 367 88 380 180 c 0,51,52
 384 216 384 216 373 242.5 c 128,-1,53
 362 269 362 269 343 275 c 0,54,55
 307 286 307 286 283 260 c 0,56,57
 247 227 247 227 235.5 145.5 c 128,-1,58
 224 64 224 64 255 43 c 0,59,60
 271 31 271 31 292.5 33.5 c 128,-1,61
 314 36 314 36 331 52 c 0,49,50
EndSplineSet
EndChar

StartChar: glyph
Encoding: 1071 1071 60
Width: 533
VWidth: 1000
GlyphClass: 2
Flags: W
LayerCount: 2
Fore
SplineSet
39 9 m 0,0,1
 14 21 14 21 4 41 c 128,-1,2
 -6 61 -6 61 -6 98 c 256,3,4
 -6 134 -6 134 -2 146 c 128,-1,5
 2 158 2 158 16 158 c 0,6,7
 27 158 27 158 29 152 c 128,-1,8
 31 146 31 146 28 117 c 128,-1,9
 25 88 25 88 26.5 78.5 c 128,-1,10
 28 69 28 69 42 53 c 0,11,12
 81 14 81 14 145.5 55 c 128,-1,13
 210 96 210 96 286 205 c 0,14,15
 319 253 319 253 319 260 c 0,16,17
 319 261 319 261 315 262.5 c 128,-1,18
 311 264 311 264 305.5 262.5 c 128,-1,19
 300 261 300 261 293 260 c 0,20,21
 227 240 227 240 177.5 269 c 128,-1,22
 128 298 128 298 113 363 c 0,23,24
 101 421 101 421 121.5 484 c 128,-1,25
 142 547 142 547 191 600 c 0,26,27
 224 636 224 636 250.5 650.5 c 128,-1,28
 277 665 277 665 319 667 c 0,29,30
 357 671 357 671 395 658 c 128,-1,31
 433 645 433 645 438 628 c 0,32,33
 442 619 442 619 446.5 616.5 c 128,-1,34
 451 614 451 614 454 618.5 c 128,-1,35
 457 623 457 623 457 633 c 0,36,37
 457 659 457 659 476 667 c 0,38,39
 491 676 491 676 499 660 c 0,40,41
 503 648 503 648 495 627 c 0,42,43
 490 614 490 614 456.5 468.5 c 128,-1,44
 423 323 423 323 415 282 c 0,45,46
 411 262 411 262 390 166 c 0,47,48
 372 86 372 86 372.5 60 c 128,-1,49
 373 34 373 34 397 34 c 0,50,51
 409 34 409 34 450 73.5 c 128,-1,52
 491 113 491 113 508 143 c 0,53,54
 519 159 519 159 533.5 164.5 c 128,-1,55
 548 170 548 170 556 157 c 0,56,57
 560 148 560 148 514 90 c 128,-1,58
 468 32 468 32 446 20 c 0,59,60
 419 3 419 3 390.5 2.5 c 128,-1,61
 362 2 362 2 348 18 c 0,62,63
 333 35 333 35 335 69 c 128,-1,64
 337 103 337 103 357 191 c 0,65,66
 379 288 379 288 374 289 c 0,67,68
 374 290 374 290 371 285.5 c 128,-1,69
 368 281 368 281 363 273 c 128,-1,70
 358 265 358 265 354 256 c 0,71,72
 316 181 316 181 252 106.5 c 128,-1,73
 188 32 188 32 142 12 c 0,74,75
 111 -1 111 -1 88.5 -2 c 128,-1,76
 66 -3 66 -3 39 9 c 0,0,1
314 302 m 0,77,78
 362 335 362 335 395 407.5 c 128,-1,79
 428 480 428 480 424 542 c 0,80,81
 422 584 422 584 411 599 c 128,-1,82
 400 614 400 614 365 628 c 0,83,84
 345 634 345 634 334 633.5 c 128,-1,85
 323 633 323 633 298 625 c 0,86,87
 258 613 258 613 223 575.5 c 128,-1,88
 188 538 188 538 170 494.5 c 128,-1,89
 152 451 152 451 149.5 405 c 128,-1,90
 147 359 147 359 172 327 c 0,91,92
 190 300 190 300 208 291 c 0,93,94
 228 285 228 285 262.5 288 c 128,-1,95
 297 291 297 291 314 302 c 0,77,78
EndSplineSet
EndChar

StartChar: glyph
Encoding: 1103 1103 61
Width: 348
VWidth: 1028
GlyphClass: 2
Flags: W
LayerCount: 2
Fore
SplineSet
23 15 m 0,0,1
 10 28 10 28 5 49 c 128,-1,2
 0 70 0 70 2 108 c 0,3,4
 4 151 4 151 15.5 152 c 128,-1,5
 27 153 27 153 31 104 c 0,6,7
 36 49 36 49 48.5 35 c 128,-1,8
 61 21 61 21 92 44 c 0,9,10
 108 55 108 55 135 84 c 128,-1,11
 162 113 162 113 162 118 c 256,12,13
 162 123 162 123 135 124 c 0,14,15
 119 124 119 124 111 128 c 128,-1,16
 103 132 103 132 93 148 c 0,17,18
 80 170 80 170 78.5 188.5 c 128,-1,19
 77 207 77 207 90 242 c 0,20,21
 105 285 105 285 148 305.5 c 128,-1,22
 191 326 191 326 222 305 c 0,23,24
 234 296 234 296 237 296.5 c 128,-1,25
 240 297 240 297 243 305 c 0,26,27
 247 316 247 316 258.5 317 c 128,-1,28
 270 318 270 318 273 307 c 0,29,30
 277 297 277 297 246 175 c 0,31,32
 210 35 210 35 227 29 c 0,33,34
 237 28 237 28 273 76 c 0,35,36
 282 87 282 87 291 101 c 0,37,38
 346 176 346 176 359 170 c 0,39,40
 363 168 363 168 367 161 c 0,41,42
 371 152 371 152 340.5 107.5 c 128,-1,43
 310 63 310 63 278 28 c 0,44,45
 251 0 251 0 228 1 c 0,46,47
 203 3 203 3 193 24 c 128,-1,48
 183 45 183 45 191 76 c 0,49,50
 197 103 197 103 194 107 c 0,51,52
 190 108 190 108 172 76 c 0,53,54
 155 49 155 49 118.5 24.5 c 128,-1,55
 82 0 82 0 61 0 c 256,56,57
 38 0 38 0 23 15 c 0,0,1
200 181 m 0,58,59
 217 207 217 207 224 232 c 0,60,61
 228 247 228 247 226 253.5 c 128,-1,62
 224 260 224 260 216 271 c 0,63,64
 183 302 183 302 145 264 c 0,65,66
 118 237 118 237 115.5 204.5 c 128,-1,67
 113 172 113 172 137 158 c 0,68,69
 155 149 155 149 171 154 c 128,-1,70
 187 159 187 159 200 181 c 0,58,59
EndSplineSet
EndChar

StartChar: period
Encoding: 46 46 63
Width: 342
VWidth: 1145
Flags: W
LayerCount: 2
Fore
SplineSet
1 31.5 m 132,-1,1
 1 45 1 45 12 55 c 132,-1,2
 23 65 23 65 35.5 65 c 132,-1,3
 48 65 48 65 57.5 55 c 132,-1,4
 67 45 67 45 67 31.5 c 132,-1,5
 67 18 67 18 56 9.5 c 132,-1,6
 45 1 45 1 33 1 c 132,-1,7
 21 1 21 1 11 9.5 c 132,-1,0
 1 18 1 18 1 31.5 c 132,-1,1
EndSplineSet
EndChar

StartChar: exclam
Encoding: 33 33 64
Width: 342
VWidth: 1145
Flags: W
LayerCount: 2
Fore
SplineSet
118 479 m 0,0,1
 145 609 l 24,2,3
 168 664 168 664 193 664 c 0,4,5
 220 665 220 665 168 396 c 0,6,7
 116 121 116 121 79 133 c 0,8,9
 49 145 49 145 71 254 c 24,10,11
 94 366 94 366 118 479 c 0,0,1
29 38.5 m 128,-1,13
 29 52 29 52 40.5 61.5 c 128,-1,14
 52 71 52 71 64 71 c 128,-1,15
 76 71 76 71 86 61.5 c 128,-1,16
 96 52 96 52 96 38.5 c 128,-1,17
 96 25 96 25 85 16 c 128,-1,18
 74 7 74 7 61.5 7 c 128,-1,19
 49 7 49 7 39 16 c 128,-1,12
 29 25 29 25 29 38.5 c 128,-1,13
EndSplineSet
EndChar

StartChar: comma
Encoding: 44 44 65
Width: 442
VWidth: 1023
Flags: W
LayerCount: 2
Fore
SplineSet
1.5615234375 -74.5380859375 m 4,0,1
 -1 -69 -1 -69 5.2041015625 -54.814453125 c 4,2,3
 11 -42 11 -42 22.033203125 -28.412109375 c 4,4,5
 36 -12 36 -12 40.68359375 0.96484375 c 4,6,7
 45 12 45 12 42.3271484375 26.341796875 c 4,8,9
 41 33 41 33 41.4228515625 39.2041015625 c 4,10,11
 42 46 42 46 44.8916015625 50.3984375 c 4,12,13
 48 55 48 55 51.8447265625 59.3310546875 c 4,14,15
 56 63 56 63 61.392578125 65.4140625 c 4,16,17
 71 68 71 68 72.6455078125 68.0537109375 c 4,18,19
 82 68 82 68 84.716796875 66.6591796875 c 4,20,21
 91 64 91 64 96.7158203125 60.638671875 c 4,22,23
 102 57 102 57 104.588867188 53.4150390625 c 132,-1,24
 107 50 107 50 108.795898438 45.859375 c 4,25,26
 110 42 110 42 109.594726562 35.6337890625 c 4,27,28
 109 29 109 29 107.327148438 22.443359375 c 4,29,30
 105 15 105 15 102.249023438 3.9521484375 c 4,31,32
 91 -33 91 -33 65.3271484375 -61.833984375 c 4,33,34
 45 -84 45 -84 25.8837890625 -88.419921875 c 4,35,36
 9 -92 9 -92 1.5615234375 -74.5380859375 c 4,0,1
EndSplineSet
EndChar

StartChar: question
Encoding: 63 63 66
Width: 401
VWidth: 1023
Flags: W
LayerCount: 2
Fore
SplineSet
62 10 m 4,0,1
 51 17 51 17 57 38 c 4,2,3
 62 59 62 59 81 59.5 c 132,-1,4
 100 60 100 60 105 39 c 4,5,6
 110 20 110 20 105 11 c 4,7,8
 100 4 100 4 86.5 3.5 c 132,-1,9
 73 3 73 3 62 10 c 4,0,1
69 138 m 4,10,11
 69 157 69 157 82 198 c 4,12,13
 92 232 92 232 124.5 269 c 132,-1,14
 157 306 157 306 231 365 c 4,15,16
 267 394 267 394 280 410 c 132,-1,17
 293 426 293 426 304 454 c 4,18,19
 328 518 328 518 318.5 563.5 c 132,-1,20
 309 609 309 609 268 627 c 4,21,22
 191 659 191 659 113 587 c 4,23,24
 89 565 89 565 70.5 530.5 c 132,-1,25
 52 496 52 496 55 477 c 4,26,27
 57 461 57 461 53 455 c 132,-1,28
 49 449 49 449 38 449 c 4,29,30
 9 449 9 449 17 499 c 4,31,32
 27 558 27 558 72 605 c 4,33,34
 131 667 131 667 207 674 c 4,35,36
 290 683 290 683 333.5 631 c 132,-1,37
 377 579 377 579 359 491 c 4,38,39
 346 429 346 429 318.5 391.5 c 132,-1,40
 291 354 291 354 220 302 c 4,41,42
 170 265 170 265 150 239.5 c 132,-1,43
 130 214 130 214 116 169 c 4,44,45
 108 144 108 144 101.5 133.5 c 132,-1,46
 95 123 95 123 86 122 c 4,47,48
 76 121 76 121 72.5 124 c 132,-1,49
 69 127 69 127 69 138 c 4,10,11
EndSplineSet
EndChar

StartChar: quotedbl
Encoding: 34 34 67
Width: 232
VWidth: 1023
Flags: W
LayerCount: 2
Fore
SplineSet
111.561523438 385.461914062 m 4,0,1
 109 391 109 391 115.204101562 405.185546875 c 4,2,3
 121 418 121 418 132.033203125 431.587890625 c 4,4,5
 146 448 146 448 150.68359375 460.96484375 c 4,6,7
 155 472 155 472 152.327148438 486.341796875 c 4,8,9
 151 493 151 493 151.422851562 499.204101562 c 4,10,11
 152 506 152 506 154.891601562 510.3984375 c 4,12,13
 158 515 158 515 161.844726562 519.331054688 c 4,14,15
 166 523 166 523 171.392578125 525.4140625 c 4,16,17
 181 528 181 528 182.645507812 528.053710938 c 4,18,19
 192 528 192 528 194.716796875 526.659179688 c 4,20,21
 201 524 201 524 206.715820312 520.638671875 c 4,22,23
 212 517 212 517 214.588867188 513.415039062 c 132,-1,24
 217 510 217 510 218.795898438 505.859375 c 4,25,26
 220 502 220 502 219.594726562 495.633789062 c 4,27,28
 219 489 219 489 217.327148438 482.443359375 c 4,29,30
 215 475 215 475 212.249023438 463.952148438 c 4,31,32
 201 427 201 427 175.327148438 398.166015625 c 4,33,34
 155 376 155 376 135.883789062 371.580078125 c 4,35,36
 119 368 119 368 111.561523438 385.461914062 c 4,0,1
1.5615234375 385.461914062 m 4,37,38
 -1 391 -1 391 5.2041015625 405.185546875 c 4,39,40
 11 418 11 418 22.033203125 431.587890625 c 4,41,42
 36 448 36 448 40.68359375 460.96484375 c 4,43,44
 45 472 45 472 42.3271484375 486.341796875 c 4,45,46
 41 493 41 493 41.4228515625 499.204101562 c 4,47,48
 42 506 42 506 44.8916015625 510.3984375 c 4,49,50
 48 515 48 515 51.8447265625 519.331054688 c 4,51,52
 56 523 56 523 61.392578125 525.4140625 c 4,53,54
 71 528 71 528 72.6455078125 528.053710938 c 4,55,56
 82 528 82 528 84.716796875 526.659179688 c 4,57,58
 91 524 91 524 96.7158203125 520.638671875 c 4,59,60
 102 517 102 517 104.588867188 513.415039062 c 132,-1,61
 107 510 107 510 108.795898438 505.859375 c 4,62,63
 110 502 110 502 109.594726562 495.633789062 c 4,64,65
 109 489 109 489 107.327148438 482.443359375 c 4,66,67
 105 475 105 475 102.249023438 463.952148438 c 4,68,69
 91 427 91 427 65.3271484375 398.166015625 c 4,70,71
 45 376 45 376 25.8837890625 371.580078125 c 4,72,73
 9 368 9 368 1.5615234375 385.461914062 c 4,37,38
EndSplineSet
EndChar

StartChar: quotedblbase
Encoding: 8222 8222 68
Width: 232
VWidth: 1023
Flags: W
LayerCount: 2
Fore
SplineSet
111.561523438 -64.5380859375 m 4,0,1
 109 -59 109 -59 115.204101562 -44.814453125 c 4,2,3
 121 -32 121 -32 132.033203125 -18.412109375 c 4,4,5
 146 -2 146 -2 150.68359375 10.96484375 c 4,6,7
 155 22 155 22 152.327148438 36.341796875 c 4,8,9
 151 43 151 43 151.422851562 49.2041015625 c 4,10,11
 152 56 152 56 154.891601562 60.3984375 c 4,12,13
 158 65 158 65 161.844726562 69.3310546875 c 4,14,15
 166 73 166 73 171.392578125 75.4140625 c 4,16,17
 181 78 181 78 182.645507812 78.0537109375 c 4,18,19
 192 78 192 78 194.716796875 76.6591796875 c 4,20,21
 201 74 201 74 206.715820312 70.638671875 c 4,22,23
 212 67 212 67 214.588867188 63.4150390625 c 132,-1,24
 217 60 217 60 218.795898438 55.859375 c 4,25,26
 220 52 220 52 219.594726562 45.6337890625 c 4,27,28
 219 39 219 39 217.327148438 32.443359375 c 4,29,30
 215 25 215 25 212.249023438 13.9521484375 c 4,31,32
 201 -23 201 -23 175.327148438 -51.833984375 c 4,33,34
 155 -74 155 -74 135.883789062 -78.419921875 c 4,35,36
 119 -82 119 -82 111.561523438 -64.5380859375 c 4,0,1
1.5615234375 -64.5380859375 m 4,37,38
 -1 -59 -1 -59 5.2041015625 -44.814453125 c 4,39,40
 11 -32 11 -32 22.033203125 -18.412109375 c 4,41,42
 36 -2 36 -2 40.68359375 10.96484375 c 4,43,44
 45 22 45 22 42.3271484375 36.341796875 c 4,45,46
 41 43 41 43 41.4228515625 49.2041015625 c 4,47,48
 42 56 42 56 44.8916015625 60.3984375 c 4,49,50
 48 65 48 65 51.8447265625 69.3310546875 c 4,51,52
 56 73 56 73 61.392578125 75.4140625 c 4,53,54
 71 78 71 78 72.6455078125 78.0537109375 c 4,55,56
 82 78 82 78 84.716796875 76.6591796875 c 4,57,58
 91 74 91 74 96.7158203125 70.638671875 c 4,59,60
 102 67 102 67 104.588867188 63.4150390625 c 132,-1,61
 107 60 107 60 108.795898438 55.859375 c 4,62,63
 110 52 110 52 109.594726562 45.6337890625 c 4,64,65
 109 39 109 39 107.327148438 32.443359375 c 4,66,67
 105 25 105 25 102.249023438 13.9521484375 c 4,68,69
 91 -23 91 -23 65.3271484375 -51.833984375 c 4,70,71
 45 -74 45 -74 25.8837890625 -78.419921875 c 4,72,73
 9 -82 9 -82 1.5615234375 -64.5380859375 c 4,37,38
EndSplineSet
EndChar

StartChar: quotedblleft
Encoding: 8220 8220 69
Width: 232
VWidth: 1023
Flags: W
LayerCount: 2
Fore
SplineSet
109.594726562 591.171875 m 4,0,1
 112.15625 585.633789062 112.15625 585.633789062 105.952148438 571.448242188 c 4,2,3
 100.15625 558.633789062 100.15625 558.633789062 89.123046875 545.045898438 c 4,4,5
 75.15625 528.633789062 75.15625 528.633789062 70.47265625 515.668945312 c 4,6,7
 66.15625 504.633789062 66.15625 504.633789062 68.8291015625 490.291992188 c 4,8,9
 70.15625 483.633789062 70.15625 483.633789062 69.7333984375 477.4296875 c 4,10,11
 69.15625 470.633789062 69.15625 470.633789062 66.2646484375 466.235351562 c 4,12,13
 63.15625 461.633789062 63.15625 461.633789062 59.3115234375 457.302734375 c 4,14,15
 55.15625 453.633789062 55.15625 453.633789062 49.763671875 451.219726562 c 4,16,17
 40.15625 448.633789062 40.15625 448.633789062 38.5107421875 448.580078125 c 4,18,19
 29.15625 448.633789062 29.15625 448.633789062 26.439453125 449.974609375 c 4,20,21
 20.15625 452.633789062 20.15625 452.633789062 14.4404296875 455.995117188 c 4,22,23
 9.15625 459.633789062 9.15625 459.633789062 6.5673828125 463.21875 c 132,-1,24
 4.15625 466.633789062 4.15625 466.633789062 2.3603515625 470.774414062 c 4,25,26
 1.15625 474.633789062 1.15625 474.633789062 1.5615234375 481 c 4,27,28
 2.15625 487.633789062 2.15625 487.633789062 3.8291015625 494.190429688 c 4,29,30
 6.15625 501.633789062 6.15625 501.633789062 8.9072265625 512.681640625 c 4,31,32
 20.15625 549.633789062 20.15625 549.633789062 45.8291015625 578.467773438 c 4,33,34
 66.15625 600.633789062 66.15625 600.633789062 85.2724609375 605.053710938 c 4,35,36
 102.15625 608.633789062 102.15625 608.633789062 109.594726562 591.171875 c 4,0,1
219.594726562 591.171875 m 4,37,38
 222.15625 585.633789062 222.15625 585.633789062 215.952148438 571.448242188 c 4,39,40
 210.15625 558.633789062 210.15625 558.633789062 199.123046875 545.045898438 c 4,41,42
 185.15625 528.633789062 185.15625 528.633789062 180.47265625 515.668945312 c 4,43,44
 176.15625 504.633789062 176.15625 504.633789062 178.829101562 490.291992188 c 4,45,46
 180.15625 483.633789062 180.15625 483.633789062 179.733398438 477.4296875 c 4,47,48
 179.15625 470.633789062 179.15625 470.633789062 176.264648438 466.235351562 c 4,49,50
 173.15625 461.633789062 173.15625 461.633789062 169.311523438 457.302734375 c 4,51,52
 165.15625 453.633789062 165.15625 453.633789062 159.763671875 451.219726562 c 4,53,54
 150.15625 448.633789062 150.15625 448.633789062 148.510742188 448.580078125 c 4,55,56
 139.15625 448.633789062 139.15625 448.633789062 136.439453125 449.974609375 c 4,57,58
 130.15625 452.633789062 130.15625 452.633789062 124.440429688 455.995117188 c 4,59,60
 119.15625 459.633789062 119.15625 459.633789062 116.567382812 463.21875 c 132,-1,61
 114.15625 466.633789062 114.15625 466.633789062 112.360351562 470.774414062 c 4,62,63
 111.15625 474.633789062 111.15625 474.633789062 111.561523438 481 c 4,64,65
 112.15625 487.633789062 112.15625 487.633789062 113.829101562 494.190429688 c 4,66,67
 116.15625 501.633789062 116.15625 501.633789062 118.907226562 512.681640625 c 4,68,69
 130.15625 549.633789062 130.15625 549.633789062 155.829101562 578.467773438 c 4,70,71
 176.15625 600.633789062 176.15625 600.633789062 195.272460938 605.053710938 c 4,72,73
 212.15625 608.633789062 212.15625 608.633789062 219.594726562 591.171875 c 4,37,38
EndSplineSet
EndChar
